<?xml version="1.0" encoding="UTF-8" standalone="no"?>
<svg
   xmlns:osb="http://www.openswatchbook.org/uri/2009/osb"
   xmlns:dc="http://purl.org/dc/elements/1.1/"
   xmlns:cc="http://creativecommons.org/ns#"
   xmlns:rdf="http://www.w3.org/1999/02/22-rdf-syntax-ns#"
   xmlns:svg="http://www.w3.org/2000/svg"
   xmlns="http://www.w3.org/2000/svg"
   xmlns:xlink="http://www.w3.org/1999/xlink"
   xmlns:sodipodi="http://sodipodi.sourceforge.net/DTD/sodipodi-0.dtd"
   xmlns:inkscape="http://www.inkscape.org/namespaces/inkscape"
   inkscape:export-ydpi="300.01999"
   inkscape:export-xdpi="300.01999"
   inkscape:export-filename="/Users/erinshaben/Google Drive/Shared drives/Corporate/Marketing/Dev-Relations/Website/IndexPages/indexer-nodes.webp"
   sodipodi:docname="__base-template.svg"
   inkscape:version="1.0.2 (e86c8708, 2021-01-15)"
   id="svg8"
   version="1.1"
   viewBox="0 0 132.29166 132.29167"
   height="500"
   width="500">
  <defs
     id="defs2">
    <linearGradient
       id="linearGradient3547"
       osb:paint="solid">
      <stop
         style="stop-color:#000000;stop-opacity:1;"
         offset="0"
         id="stop3545" />
    </linearGradient>
    <marker
       inkscape:isstock="true"
       style="overflow:visible"
       id="Arrow2Mend"
       refX="0"
       refY="0"
       orient="auto"
       inkscape:stockid="Arrow2Mend">
      <path
         transform="scale(-0.6)"
         d="M 8.7185878,4.0337352 -2.2072895,0.01601326 8.7185884,-4.0017078 c -1.7454984,2.3720609 -1.7354408,5.6174519 -6e-7,8.035443 z"
         style="fill:#464646;fill-opacity:1;fill-rule:evenodd;stroke:#464646;stroke-width:0.625;stroke-linejoin:round;stroke-opacity:1"
         id="path890" />
    </marker>
    <marker
       inkscape:isstock="true"
       style="overflow:visible"
       id="marker1227"
       refX="0"
       refY="0"
       orient="auto"
       inkscape:stockid="Arrow1Send">
      <path
         transform="matrix(-0.2,0,0,-0.2,-1.2,0)"
         style="fill:#000000;fill-opacity:1;fill-rule:evenodd;stroke:#000000;stroke-width:1pt;stroke-opacity:1"
         d="M 0,0 5,-5 -12.5,0 5,5 Z"
         id="path1225" />
    </marker>
    <marker
       inkscape:isstock="true"
       style="overflow:visible"
       id="Arrow2Lend"
       refX="0"
       refY="0"
       orient="auto"
       inkscape:stockid="Arrow2Lend">
      <path
         transform="matrix(-1.1,0,0,-1.1,-1.1,0)"
         d="M 8.7185878,4.0337352 -2.2072895,0.01601326 8.7185884,-4.0017078 c -1.7454984,2.3720609 -1.7354408,5.6174519 -6e-7,8.035443 z"
         style="fill:#000000;fill-opacity:1;fill-rule:evenodd;stroke:#000000;stroke-width:0.625;stroke-linejoin:round;stroke-opacity:1"
         id="path884" />
    </marker>
    <marker
       inkscape:isstock="true"
       style="overflow:visible"
       id="marker1167"
       refX="0"
       refY="0"
       orient="auto"
       inkscape:stockid="Arrow1Mend">
      <path
         transform="matrix(-0.4,0,0,-0.4,-4,0)"
         style="fill:#000000;fill-opacity:1;fill-rule:evenodd;stroke:#000000;stroke-width:1pt;stroke-opacity:1"
         d="M 0,0 5,-5 -12.5,0 5,5 Z"
         id="path1165" />
    </marker>
    <marker
       inkscape:isstock="true"
       style="overflow:visible"
       id="Arrow1Send"
       refX="0"
       refY="0"
       orient="auto"
       inkscape:stockid="Arrow1Send">
      <path
         transform="matrix(-0.2,0,0,-0.2,-1.2,0)"
         style="fill:#000000;fill-opacity:1;fill-rule:evenodd;stroke:#000000;stroke-width:1pt;stroke-opacity:1"
         d="M 0,0 5,-5 -12.5,0 5,5 Z"
         id="path878" />
    </marker>
    <marker
       inkscape:isstock="true"
       style="overflow:visible"
       id="Arrow1Mend"
       refX="0"
       refY="0"
       orient="auto"
       inkscape:stockid="Arrow1Mend">
      <path
         transform="matrix(-0.4,0,0,-0.4,-4,0)"
         style="fill:#000000;fill-opacity:1;fill-rule:evenodd;stroke:#000000;stroke-width:1pt;stroke-opacity:1"
         d="M 0,0 5,-5 -12.5,0 5,5 Z"
         id="path872" />
    </marker>
    <marker
       inkscape:stockid="Arrow2Mend"
       orient="auto"
       refY="0"
       refX="0"
       id="Arrow2Mend-4"
       style="overflow:visible"
       inkscape:isstock="true">
      <path
         id="path890-4"
         style="fill:#969696;fill-opacity:1;fill-rule:evenodd;stroke:#969696;stroke-width:0.625;stroke-linejoin:round;stroke-opacity:1"
         d="M 8.7185878,4.0337352 -2.2072895,0.01601326 8.7185884,-4.0017078 c -1.7454984,2.3720609 -1.7354408,5.6174519 -6e-7,8.035443 z"
         transform="scale(-0.6)" />
    </marker>
    <style
       id="style959">.cls-1{fill:#fff;}.cls-2{fill:#5e464d;}.cls-3{mask:url(#mask);}.cls-4{fill:#3fe0c5;}</style>
    <mask
       maskUnits="userSpaceOnUse"
       height="259.02"
       width="265.39"
       y="20.13"
       x="0"
       id="mask">
      <g
         id="mask-4">
        <polygon
           points="265.39,20.13 265.39,279.15 0,279.15 0,20.13 "
           class="cls-1"
           id="path-3" />
      </g>
    </mask>
    <marker
       inkscape:isstock="true"
       style="overflow:visible"
       id="Arrow2Mend-5"
       refX="0"
       refY="0"
       orient="auto"
       inkscape:stockid="Arrow2Mend">
      <path
         transform="scale(-0.6)"
         d="M 8.7185878,4.0337352 -2.2072895,0.01601326 8.7185884,-4.0017078 c -1.7454984,2.3720609 -1.7354408,5.6174519 -6e-7,8.035443 z"
         style="fill:#464646;fill-opacity:1;fill-rule:evenodd;stroke:#464646;stroke-width:0.625;stroke-linejoin:round;stroke-opacity:1"
         id="path890-6" />
    </marker>
    <marker
       inkscape:isstock="true"
       style="overflow:visible"
       id="marker1227-2"
       refX="0"
       refY="0"
       orient="auto"
       inkscape:stockid="Arrow1Send">
      <path
         transform="matrix(-0.2,0,0,-0.2,-1.2,0)"
         style="fill:#000000;fill-opacity:1;fill-rule:evenodd;stroke:#000000;stroke-width:1pt;stroke-opacity:1"
         d="M 0,0 5,-5 -12.5,0 5,5 Z"
         id="path1225-4" />
    </marker>
    <marker
       inkscape:isstock="true"
       style="overflow:visible"
       id="Arrow2Lend-7"
       refX="0"
       refY="0"
       orient="auto"
       inkscape:stockid="Arrow2Lend">
      <path
         transform="matrix(-1.1,0,0,-1.1,-1.1,0)"
         d="M 8.7185878,4.0337352 -2.2072895,0.01601326 8.7185884,-4.0017078 c -1.7454984,2.3720609 -1.7354408,5.6174519 -6e-7,8.035443 z"
         style="fill:#000000;fill-opacity:1;fill-rule:evenodd;stroke:#000000;stroke-width:0.625;stroke-linejoin:round;stroke-opacity:1"
         id="path884-7" />
    </marker>
    <marker
       inkscape:isstock="true"
       style="overflow:visible"
       id="marker1167-4"
       refX="0"
       refY="0"
       orient="auto"
       inkscape:stockid="Arrow1Mend">
      <path
         transform="matrix(-0.4,0,0,-0.4,-4,0)"
         style="fill:#000000;fill-opacity:1;fill-rule:evenodd;stroke:#000000;stroke-width:1pt;stroke-opacity:1"
         d="M 0,0 5,-5 -12.5,0 5,5 Z"
         id="path1165-1" />
    </marker>
    <marker
       inkscape:isstock="true"
       style="overflow:visible"
       id="Arrow1Send-9"
       refX="0"
       refY="0"
       orient="auto"
       inkscape:stockid="Arrow1Send">
      <path
         transform="matrix(-0.2,0,0,-0.2,-1.2,0)"
         style="fill:#000000;fill-opacity:1;fill-rule:evenodd;stroke:#000000;stroke-width:1pt;stroke-opacity:1"
         d="M 0,0 5,-5 -12.5,0 5,5 Z"
         id="path878-0" />
    </marker>
    <marker
       inkscape:isstock="true"
       style="overflow:visible"
       id="Arrow1Mend-3"
       refX="0"
       refY="0"
       orient="auto"
       inkscape:stockid="Arrow1Mend">
      <path
         transform="matrix(-0.4,0,0,-0.4,-4,0)"
         style="fill:#000000;fill-opacity:1;fill-rule:evenodd;stroke:#000000;stroke-width:1pt;stroke-opacity:1"
         d="M 0,0 5,-5 -12.5,0 5,5 Z"
         id="path872-8" />
    </marker>
    <marker
       inkscape:stockid="Arrow2Mend"
       orient="auto"
       refY="0"
       refX="0"
       id="Arrow2Mend-4-6"
       style="overflow:visible"
       inkscape:isstock="true">
      <path
         id="path890-4-3"
         style="fill:#969696;fill-opacity:1;fill-rule:evenodd;stroke:#969696;stroke-width:0.625;stroke-linejoin:round;stroke-opacity:1"
         d="M 8.7185878,4.0337352 -2.2072895,0.01601326 8.7185884,-4.0017078 c -1.7454984,2.3720609 -1.7354408,5.6174519 -6e-7,8.035443 z"
         transform="scale(-0.6)" />
    </marker>
    <style
       id="style959-3">.cls-1{fill:#fff;}.cls-2{fill:#5e464d;}.cls-3{mask:url(#mask);}.cls-4{fill:#3fe0c5;}</style>
    <mask
       maskUnits="userSpaceOnUse"
       height="259.02"
       width="265.39"
       y="20.13"
       x="0"
       id="mask-3">
      <g
         id="mask-4-1">
        <polygon
           points="265.39,20.13 265.39,279.15 0,279.15 0,20.13 "
           class="cls-1"
           id="path-3-9" />
      </g>
    </mask>
    <linearGradient
       id="linearGradient4689">
      <stop
         id="stop4691"
         offset="0"
         style="stop-color:#5a9fd4;stop-opacity:1;" />
      <stop
         id="stop4693"
         offset="1"
         style="stop-color:#306998;stop-opacity:1;" />
    </linearGradient>
    <linearGradient
       id="linearGradient4671">
      <stop
         id="stop4673"
         offset="0"
         style="stop-color:#ffd43b;stop-opacity:1;" />
      <stop
         id="stop4675"
         offset="1"
         style="stop-color:#ffe873;stop-opacity:1" />
    </linearGradient>
    <clipPath
       id="clip0">
      <rect
         width="156"
         height="158"
         fill="#ffffff"
         id="rect1004"
         x="0"
         y="0" />
    </clipPath>
    <linearGradient
       id="paint0_linear"
       x1="30.1147"
       y1="86.1707"
       x2="30.1147"
       y2="9.2414799"
       gradientUnits="userSpaceOnUse">
      <stop
         stop-color="#EDCF00"
         id="stop979" />
      <stop
         offset="0.33"
         stop-color="#F0D500"
         id="stop981" />
      <stop
         offset="0.77"
         stop-color="#F9E500"
         id="stop983" />
      <stop
         offset="1"
         stop-color="#FFF100"
         id="stop985" />
    </linearGradient>
    <linearGradient
       id="paint1_linear"
       x1="141.172"
       y1="86.732597"
       x2="141.172"
       y2="31.092699"
       gradientUnits="userSpaceOnUse">
      <stop
         stop-color="#EDCF00"
         id="stop988" />
      <stop
         offset="0.59"
         stop-color="#F7E100"
         id="stop990" />
      <stop
         offset="1"
         stop-color="#FFF100"
         id="stop992" />
    </linearGradient>
    <radialGradient
       id="paint2_radial"
       cx="0"
       cy="0"
       r="1"
       gradientUnits="userSpaceOnUse"
       gradientTransform="matrix(58.1183,0,0,58.2454,78.2514,138.761)">
      <stop
         stop-color="#FFF100"
         id="stop995" />
      <stop
         offset="0.23"
         stop-color="#F9E500"
         id="stop997" />
      <stop
         offset="0.67"
         stop-color="#F0D500"
         id="stop999" />
      <stop
         offset="1"
         stop-color="#EDCF00"
         id="stop1001" />
    </radialGradient>
    <filter
       id="filter0_f"
       x="2.1875"
       y="133"
       width="151.62601"
       height="35"
       filterUnits="userSpaceOnUse"
       color-interpolation-filters="sRGB">
      <feFlood
         flood-opacity="0"
         result="BackgroundImageFix"
         id="feFlood972" />
      <feBlend
         mode="normal"
         in="SourceGraphic"
         in2="BackgroundImageFix"
         result="shape"
         id="feBlend974" />
      <feGaussianBlur
         stdDeviation="5"
         result="effect1_foregroundBlur"
         id="feGaussianBlur976" />
    </filter>
    <linearGradient
       id="v-1"
       x1="366.45236"
       x2="366.45236"
       y1="-110.20858"
       y2="732.86908"
       gradientTransform="scale(1.2810371,0.78061754)"
       gradientUnits="userSpaceOnUse">
      <stop
         offset="0%"
         stop-color="#9C703E"
         id="stop11-5" />
      <stop
         offset="100%"
         stop-color="#784A25"
         id="stop13-3" />
    </linearGradient>
    <pattern
       id="w-7"
       width="258"
       height="258"
       x="-257.977"
       y="-258"
       patternUnits="userSpaceOnUse">
      <use
         xlink:href="#a"
         id="use17-2" />
    </pattern>
    <mask
       id="x-2"
       fill="#ffffff">
      <path
         id="use126-6"
         d="m 39.063,330.866 c -1.516,-1.191 -6.334,-3.987 -11.244,-6.883 -5.73,-3.378 -18.257,-9.594 -21.938,-15.286 -3.68,-5.693 -5.858,-6.93 -5.858,-17.045 a 28.319,28.319 0 0 1 14.151,-24.521 l 428.818,-256.315 0.672,-0.373 0.348,-0.237 10.724,-6.41 c 0.232,-0.133 0.465,-0.264 0.7,-0.391 2.16,-1.05 4.181,-1.858 6.115,-2.437 a 28.3,28.3 0 0 1 13.645,-0.256 c 2.53,0.675 5.136,1.735 7.956,3.143 l 4.206,2.256 c 2.369,1.344 4.905,2.888 7.674,4.615 267.45,153.459 411.1,236.514 430.949,249.167 12.961,8.263 16.77,25.468 8.508,38.43 a 27.832,27.832 0 0 1 -9.45,9.083 l -38.12,22.226 -34.316,30.094 c -35.243,-10.455 -58.583,-12.097 -70.02,-4.924 -3.983,2.499 -11.176,-2.09 -17.444,-5.928 -6.27,-3.84 -20.67,8.134 -27.487,14.05 -2.904,2.52 -4.269,6.082 -4.095,10.688 a 14.941,14.941 0 0 1 -8.123,13.865 c -46.801,-12.582 -77.429,-8.331 -100.16,3.347 -10.084,5.181 -18.704,9.812 -25.884,13.71 a 4.874,4.874 0 0 0 -0.587,8.191 l 3.197,2.383 a 7.915,7.915 0 0 1 -0.291,12.9 l -5.161,3.495 c -15.61,-8.576 -23.71,-13.252 -24.297,-14.03 -0.047,-0.063 -2.194,0.715 -6.44,2.334 a 20,20 0 0 1 -2.627,0.8 c -13.404,3.09 -24.56,1.6 -33.471,-4.47 -13.846,-9.434 -20.513,-0.081 -23.596,2.534 -2.89,2.45 -2.375,16.082 -2.138,22.533 0.016,0.43 0.06,4.693 0,5.122 -0.04,0.287 -2.744,2.414 -8.115,6.38 -5.21,3.756 -11.228,5.775 -18.053,6.059 -10.238,0.425 -15.999,-3.94 -25.073,-10.326 -6.05,-4.257 -9.074,-8.996 -9.074,-14.216 1.586,-18.372 -4.586,-23.956 -18.517,-16.75 -15.402,7.958 -19.261,14.557 -35.683,6.61 -10.948,-5.297 -30.752,2.117 -59.41,22.243 l -21.881,13.6 a 51.071,51.071 0 0 1 -55.16,-0.798 15.13,15.13 0 0 0 -1.209,-0.725 c -11.13,-5.96 -14.687,29.104 -15.19,35.398 -0.293,10.786 -1.396,15.85 1.98,38.401 1.21,8.087 5.428,12.686 7.059,16.955 6.177,16.177 -3.264,23.431 -11.698,22.907 -8.434,-0.525 -15.475,-9.077 -10.818,-22.932 1.786,-5.315 4.362,-9.12 6.198,-16.93 4.62,-19.644 4.734,-27.922 2.585,-38.401 -4.953,-24.143 -12.824,-57.86 -31.187,-69.718 -25.023,-16.159 -52.73,-29.335 -63.815,-15.63 -3.593,4.443 -7.325,6.23 -10.875,3.115 -3.55,-3.115 -4.557,-5.921 -11.433,-20.197 -3.427,-7.114 -7.255,-12.365 -7.794,-13.3 -10.09,-17.5 -30.718,-26.671 -40.43,-31.924 a 1101.092,1101.092 0 0 1 -27.323,-15.28 z" />
    </mask>
    <linearGradient
       id="y"
       x1="0.5"
       x2="0.45043999"
       y1="0"
       y2="0.91953003">
      <stop
         offset="0%"
         stop-color="#71401B"
         id="stop20" />
      <stop
         offset="100%"
         stop-color="#472810"
         id="stop22" />
    </linearGradient>
    <pattern
       id="A-7"
       width="258"
       height="258"
       x="-257.77"
       y="-257.606"
       patternUnits="userSpaceOnUse">
      <use
         xlink:href="#b"
         id="use26-7" />
    </pattern>
    <linearGradient
       id="B"
       x1="0.5"
       x2="0.5"
       y1="0"
       y2="1">
      <stop
         offset="0%"
         stop-color="#7B4D27"
         id="stop29" />
      <stop
         offset="100%"
         stop-color="#683F1E"
         id="stop31" />
    </linearGradient>
    <pattern
       id="D-0"
       width="258"
       height="258"
       x="-246.97"
       y="-230.293"
       patternUnits="userSpaceOnUse">
      <use
         xlink:href="#c"
         id="use35-3" />
    </pattern>
    <mask
       id="mask13577"
       fill="#ffffff">
      <path
         id="path13575"
         d="m 39.063,330.866 c -1.516,-1.191 -6.334,-3.987 -11.244,-6.883 -5.73,-3.378 -18.257,-9.594 -21.938,-15.286 -3.68,-5.693 -5.858,-6.93 -5.858,-17.045 a 28.319,28.319 0 0 1 14.151,-24.521 l 428.818,-256.315 0.672,-0.373 0.348,-0.237 10.724,-6.41 c 0.232,-0.133 0.465,-0.264 0.7,-0.391 2.16,-1.05 4.181,-1.858 6.115,-2.437 a 28.3,28.3 0 0 1 13.645,-0.256 c 2.53,0.675 5.136,1.735 7.956,3.143 l 4.206,2.256 c 2.369,1.344 4.905,2.888 7.674,4.615 267.45,153.459 411.1,236.514 430.949,249.167 12.961,8.263 16.77,25.468 8.508,38.43 a 27.832,27.832 0 0 1 -9.45,9.083 l -38.12,22.226 -34.316,30.094 c -35.243,-10.455 -58.583,-12.097 -70.02,-4.924 -3.983,2.499 -11.176,-2.09 -17.444,-5.928 -6.27,-3.84 -20.67,8.134 -27.487,14.05 -2.904,2.52 -4.269,6.082 -4.095,10.688 a 14.941,14.941 0 0 1 -8.123,13.865 c -46.801,-12.582 -77.429,-8.331 -100.16,3.347 -10.084,5.181 -18.704,9.812 -25.884,13.71 a 4.874,4.874 0 0 0 -0.587,8.191 l 3.197,2.383 a 7.915,7.915 0 0 1 -0.291,12.9 l -5.161,3.495 c -15.61,-8.576 -23.71,-13.252 -24.297,-14.03 -0.047,-0.063 -2.194,0.715 -6.44,2.334 a 20,20 0 0 1 -2.627,0.8 c -13.404,3.09 -24.56,1.6 -33.471,-4.47 -13.846,-9.434 -20.513,-0.081 -23.596,2.534 -2.89,2.45 -2.375,16.082 -2.138,22.533 0.016,0.43 0.06,4.693 0,5.122 -0.04,0.287 -2.744,2.414 -8.115,6.38 -5.21,3.756 -11.228,5.775 -18.053,6.059 -10.238,0.425 -15.999,-3.94 -25.073,-10.326 -6.05,-4.257 -9.074,-8.996 -9.074,-14.216 1.586,-18.372 -4.586,-23.956 -18.517,-16.75 -15.402,7.958 -19.261,14.557 -35.683,6.61 -10.948,-5.297 -30.752,2.117 -59.41,22.243 l -21.881,13.6 a 51.071,51.071 0 0 1 -55.16,-0.798 15.13,15.13 0 0 0 -1.209,-0.725 c -11.13,-5.96 -14.687,29.104 -15.19,35.398 -0.293,10.786 -1.396,15.85 1.98,38.401 1.21,8.087 5.428,12.686 7.059,16.955 6.177,16.177 -3.264,23.431 -11.698,22.907 -8.434,-0.525 -15.475,-9.077 -10.818,-22.932 1.786,-5.315 4.362,-9.12 6.198,-16.93 4.62,-19.644 4.734,-27.922 2.585,-38.401 -4.953,-24.143 -12.824,-57.86 -31.187,-69.718 -25.023,-16.159 -52.73,-29.335 -63.815,-15.63 -3.593,4.443 -7.325,6.23 -10.875,3.115 -3.55,-3.115 -4.557,-5.921 -11.433,-20.197 -3.427,-7.114 -7.255,-12.365 -7.794,-13.3 -10.09,-17.5 -30.718,-26.671 -40.43,-31.924 a 1101.092,1101.092 0 0 1 -27.323,-15.28 z" />
    </mask>
    <pattern
       id="F-5"
       width="258"
       height="258"
       x="-257.77"
       y="-257.606"
       patternUnits="userSpaceOnUse">
      <use
         xlink:href="#d"
         id="use39-9" />
    </pattern>
    <pattern
       id="H-6"
       width="258"
       height="258"
       x="-246.97"
       y="-230.293"
       patternUnits="userSpaceOnUse">
      <use
         xlink:href="#e"
         id="use43-0" />
    </pattern>
    <mask
       id="mask13601"
       fill="#ffffff">
      <path
         id="path13599"
         d="m 39.063,330.866 c -1.516,-1.191 -6.334,-3.987 -11.244,-6.883 -5.73,-3.378 -18.257,-9.594 -21.938,-15.286 -3.68,-5.693 -5.858,-6.93 -5.858,-17.045 a 28.319,28.319 0 0 1 14.151,-24.521 l 428.818,-256.315 0.672,-0.373 0.348,-0.237 10.724,-6.41 c 0.232,-0.133 0.465,-0.264 0.7,-0.391 2.16,-1.05 4.181,-1.858 6.115,-2.437 a 28.3,28.3 0 0 1 13.645,-0.256 c 2.53,0.675 5.136,1.735 7.956,3.143 l 4.206,2.256 c 2.369,1.344 4.905,2.888 7.674,4.615 267.45,153.459 411.1,236.514 430.949,249.167 12.961,8.263 16.77,25.468 8.508,38.43 a 27.832,27.832 0 0 1 -9.45,9.083 l -38.12,22.226 -34.316,30.094 c -35.243,-10.455 -58.583,-12.097 -70.02,-4.924 -3.983,2.499 -11.176,-2.09 -17.444,-5.928 -6.27,-3.84 -20.67,8.134 -27.487,14.05 -2.904,2.52 -4.269,6.082 -4.095,10.688 a 14.941,14.941 0 0 1 -8.123,13.865 c -46.801,-12.582 -77.429,-8.331 -100.16,3.347 -10.084,5.181 -18.704,9.812 -25.884,13.71 a 4.874,4.874 0 0 0 -0.587,8.191 l 3.197,2.383 a 7.915,7.915 0 0 1 -0.291,12.9 l -5.161,3.495 c -15.61,-8.576 -23.71,-13.252 -24.297,-14.03 -0.047,-0.063 -2.194,0.715 -6.44,2.334 a 20,20 0 0 1 -2.627,0.8 c -13.404,3.09 -24.56,1.6 -33.471,-4.47 -13.846,-9.434 -20.513,-0.081 -23.596,2.534 -2.89,2.45 -2.375,16.082 -2.138,22.533 0.016,0.43 0.06,4.693 0,5.122 -0.04,0.287 -2.744,2.414 -8.115,6.38 -5.21,3.756 -11.228,5.775 -18.053,6.059 -10.238,0.425 -15.999,-3.94 -25.073,-10.326 -6.05,-4.257 -9.074,-8.996 -9.074,-14.216 1.586,-18.372 -4.586,-23.956 -18.517,-16.75 -15.402,7.958 -19.261,14.557 -35.683,6.61 -10.948,-5.297 -30.752,2.117 -59.41,22.243 l -21.881,13.6 a 51.071,51.071 0 0 1 -55.16,-0.798 15.13,15.13 0 0 0 -1.209,-0.725 c -11.13,-5.96 -14.687,29.104 -15.19,35.398 -0.293,10.786 -1.396,15.85 1.98,38.401 1.21,8.087 5.428,12.686 7.059,16.955 6.177,16.177 -3.264,23.431 -11.698,22.907 -8.434,-0.525 -15.475,-9.077 -10.818,-22.932 1.786,-5.315 4.362,-9.12 6.198,-16.93 4.62,-19.644 4.734,-27.922 2.585,-38.401 -4.953,-24.143 -12.824,-57.86 -31.187,-69.718 -25.023,-16.159 -52.73,-29.335 -63.815,-15.63 -3.593,4.443 -7.325,6.23 -10.875,3.115 -3.55,-3.115 -4.557,-5.921 -11.433,-20.197 -3.427,-7.114 -7.255,-12.365 -7.794,-13.3 -10.09,-17.5 -30.718,-26.671 -40.43,-31.924 a 1101.092,1101.092 0 0 1 -27.323,-15.28 z" />
    </mask>
    <pattern
       id="J-6"
       width="258"
       height="258"
       x="-257.77"
       y="-257.606"
       patternUnits="userSpaceOnUse">
      <use
         xlink:href="#f"
         id="use47-7" />
    </pattern>
    <pattern
       id="L-7"
       width="258"
       height="258"
       x="-246.97"
       y="-230.293"
       patternUnits="userSpaceOnUse">
      <use
         xlink:href="#g"
         id="use51-6" />
    </pattern>
    <mask
       id="mask13625"
       fill="#ffffff">
      <path
         id="path13623"
         d="m 39.063,330.866 c -1.516,-1.191 -6.334,-3.987 -11.244,-6.883 -5.73,-3.378 -18.257,-9.594 -21.938,-15.286 -3.68,-5.693 -5.858,-6.93 -5.858,-17.045 a 28.319,28.319 0 0 1 14.151,-24.521 l 428.818,-256.315 0.672,-0.373 0.348,-0.237 10.724,-6.41 c 0.232,-0.133 0.465,-0.264 0.7,-0.391 2.16,-1.05 4.181,-1.858 6.115,-2.437 a 28.3,28.3 0 0 1 13.645,-0.256 c 2.53,0.675 5.136,1.735 7.956,3.143 l 4.206,2.256 c 2.369,1.344 4.905,2.888 7.674,4.615 267.45,153.459 411.1,236.514 430.949,249.167 12.961,8.263 16.77,25.468 8.508,38.43 a 27.832,27.832 0 0 1 -9.45,9.083 l -38.12,22.226 -34.316,30.094 c -35.243,-10.455 -58.583,-12.097 -70.02,-4.924 -3.983,2.499 -11.176,-2.09 -17.444,-5.928 -6.27,-3.84 -20.67,8.134 -27.487,14.05 -2.904,2.52 -4.269,6.082 -4.095,10.688 a 14.941,14.941 0 0 1 -8.123,13.865 c -46.801,-12.582 -77.429,-8.331 -100.16,3.347 -10.084,5.181 -18.704,9.812 -25.884,13.71 a 4.874,4.874 0 0 0 -0.587,8.191 l 3.197,2.383 a 7.915,7.915 0 0 1 -0.291,12.9 l -5.161,3.495 c -15.61,-8.576 -23.71,-13.252 -24.297,-14.03 -0.047,-0.063 -2.194,0.715 -6.44,2.334 a 20,20 0 0 1 -2.627,0.8 c -13.404,3.09 -24.56,1.6 -33.471,-4.47 -13.846,-9.434 -20.513,-0.081 -23.596,2.534 -2.89,2.45 -2.375,16.082 -2.138,22.533 0.016,0.43 0.06,4.693 0,5.122 -0.04,0.287 -2.744,2.414 -8.115,6.38 -5.21,3.756 -11.228,5.775 -18.053,6.059 -10.238,0.425 -15.999,-3.94 -25.073,-10.326 -6.05,-4.257 -9.074,-8.996 -9.074,-14.216 1.586,-18.372 -4.586,-23.956 -18.517,-16.75 -15.402,7.958 -19.261,14.557 -35.683,6.61 -10.948,-5.297 -30.752,2.117 -59.41,22.243 l -21.881,13.6 a 51.071,51.071 0 0 1 -55.16,-0.798 15.13,15.13 0 0 0 -1.209,-0.725 c -11.13,-5.96 -14.687,29.104 -15.19,35.398 -0.293,10.786 -1.396,15.85 1.98,38.401 1.21,8.087 5.428,12.686 7.059,16.955 6.177,16.177 -3.264,23.431 -11.698,22.907 -8.434,-0.525 -15.475,-9.077 -10.818,-22.932 1.786,-5.315 4.362,-9.12 6.198,-16.93 4.62,-19.644 4.734,-27.922 2.585,-38.401 -4.953,-24.143 -12.824,-57.86 -31.187,-69.718 -25.023,-16.159 -52.73,-29.335 -63.815,-15.63 -3.593,4.443 -7.325,6.23 -10.875,3.115 -3.55,-3.115 -4.557,-5.921 -11.433,-20.197 -3.427,-7.114 -7.255,-12.365 -7.794,-13.3 -10.09,-17.5 -30.718,-26.671 -40.43,-31.924 a 1101.092,1101.092 0 0 1 -27.323,-15.28 z" />
    </mask>
    <pattern
       id="N-0"
       width="258"
       height="258"
       x="-257.77"
       y="-257.606"
       patternUnits="userSpaceOnUse">
      <use
         xlink:href="#h"
         id="use55-0" />
    </pattern>
    <pattern
       id="P-2"
       width="258"
       height="258"
       x="-246.97"
       y="-230.293"
       patternUnits="userSpaceOnUse">
      <use
         xlink:href="#i"
         id="use59-2" />
    </pattern>
    <mask
       id="mask13649"
       fill="#ffffff">
      <path
         id="path13647"
         d="m 39.063,330.866 c -1.516,-1.191 -6.334,-3.987 -11.244,-6.883 -5.73,-3.378 -18.257,-9.594 -21.938,-15.286 -3.68,-5.693 -5.858,-6.93 -5.858,-17.045 a 28.319,28.319 0 0 1 14.151,-24.521 l 428.818,-256.315 0.672,-0.373 0.348,-0.237 10.724,-6.41 c 0.232,-0.133 0.465,-0.264 0.7,-0.391 2.16,-1.05 4.181,-1.858 6.115,-2.437 a 28.3,28.3 0 0 1 13.645,-0.256 c 2.53,0.675 5.136,1.735 7.956,3.143 l 4.206,2.256 c 2.369,1.344 4.905,2.888 7.674,4.615 267.45,153.459 411.1,236.514 430.949,249.167 12.961,8.263 16.77,25.468 8.508,38.43 a 27.832,27.832 0 0 1 -9.45,9.083 l -38.12,22.226 -34.316,30.094 c -35.243,-10.455 -58.583,-12.097 -70.02,-4.924 -3.983,2.499 -11.176,-2.09 -17.444,-5.928 -6.27,-3.84 -20.67,8.134 -27.487,14.05 -2.904,2.52 -4.269,6.082 -4.095,10.688 a 14.941,14.941 0 0 1 -8.123,13.865 c -46.801,-12.582 -77.429,-8.331 -100.16,3.347 -10.084,5.181 -18.704,9.812 -25.884,13.71 a 4.874,4.874 0 0 0 -0.587,8.191 l 3.197,2.383 a 7.915,7.915 0 0 1 -0.291,12.9 l -5.161,3.495 c -15.61,-8.576 -23.71,-13.252 -24.297,-14.03 -0.047,-0.063 -2.194,0.715 -6.44,2.334 a 20,20 0 0 1 -2.627,0.8 c -13.404,3.09 -24.56,1.6 -33.471,-4.47 -13.846,-9.434 -20.513,-0.081 -23.596,2.534 -2.89,2.45 -2.375,16.082 -2.138,22.533 0.016,0.43 0.06,4.693 0,5.122 -0.04,0.287 -2.744,2.414 -8.115,6.38 -5.21,3.756 -11.228,5.775 -18.053,6.059 -10.238,0.425 -15.999,-3.94 -25.073,-10.326 -6.05,-4.257 -9.074,-8.996 -9.074,-14.216 1.586,-18.372 -4.586,-23.956 -18.517,-16.75 -15.402,7.958 -19.261,14.557 -35.683,6.61 -10.948,-5.297 -30.752,2.117 -59.41,22.243 l -21.881,13.6 a 51.071,51.071 0 0 1 -55.16,-0.798 15.13,15.13 0 0 0 -1.209,-0.725 c -11.13,-5.96 -14.687,29.104 -15.19,35.398 -0.293,10.786 -1.396,15.85 1.98,38.401 1.21,8.087 5.428,12.686 7.059,16.955 6.177,16.177 -3.264,23.431 -11.698,22.907 -8.434,-0.525 -15.475,-9.077 -10.818,-22.932 1.786,-5.315 4.362,-9.12 6.198,-16.93 4.62,-19.644 4.734,-27.922 2.585,-38.401 -4.953,-24.143 -12.824,-57.86 -31.187,-69.718 -25.023,-16.159 -52.73,-29.335 -63.815,-15.63 -3.593,4.443 -7.325,6.23 -10.875,3.115 -3.55,-3.115 -4.557,-5.921 -11.433,-20.197 -3.427,-7.114 -7.255,-12.365 -7.794,-13.3 -10.09,-17.5 -30.718,-26.671 -40.43,-31.924 a 1101.092,1101.092 0 0 1 -27.323,-15.28 z" />
    </mask>
    <pattern
       id="R-1"
       width="258"
       height="258"
       x="-257.77"
       y="-257.606"
       patternUnits="userSpaceOnUse">
      <use
         xlink:href="#j"
         id="use63-6" />
    </pattern>
    <pattern
       id="T-0"
       width="258"
       height="258"
       x="-246.97"
       y="-230.293"
       patternUnits="userSpaceOnUse">
      <use
         xlink:href="#k"
         id="use67-4" />
    </pattern>
    <mask
       id="mask13673"
       fill="#ffffff">
      <path
         id="path13671"
         d="m 39.063,330.866 c -1.516,-1.191 -6.334,-3.987 -11.244,-6.883 -5.73,-3.378 -18.257,-9.594 -21.938,-15.286 -3.68,-5.693 -5.858,-6.93 -5.858,-17.045 a 28.319,28.319 0 0 1 14.151,-24.521 l 428.818,-256.315 0.672,-0.373 0.348,-0.237 10.724,-6.41 c 0.232,-0.133 0.465,-0.264 0.7,-0.391 2.16,-1.05 4.181,-1.858 6.115,-2.437 a 28.3,28.3 0 0 1 13.645,-0.256 c 2.53,0.675 5.136,1.735 7.956,3.143 l 4.206,2.256 c 2.369,1.344 4.905,2.888 7.674,4.615 267.45,153.459 411.1,236.514 430.949,249.167 12.961,8.263 16.77,25.468 8.508,38.43 a 27.832,27.832 0 0 1 -9.45,9.083 l -38.12,22.226 -34.316,30.094 c -35.243,-10.455 -58.583,-12.097 -70.02,-4.924 -3.983,2.499 -11.176,-2.09 -17.444,-5.928 -6.27,-3.84 -20.67,8.134 -27.487,14.05 -2.904,2.52 -4.269,6.082 -4.095,10.688 a 14.941,14.941 0 0 1 -8.123,13.865 c -46.801,-12.582 -77.429,-8.331 -100.16,3.347 -10.084,5.181 -18.704,9.812 -25.884,13.71 a 4.874,4.874 0 0 0 -0.587,8.191 l 3.197,2.383 a 7.915,7.915 0 0 1 -0.291,12.9 l -5.161,3.495 c -15.61,-8.576 -23.71,-13.252 -24.297,-14.03 -0.047,-0.063 -2.194,0.715 -6.44,2.334 a 20,20 0 0 1 -2.627,0.8 c -13.404,3.09 -24.56,1.6 -33.471,-4.47 -13.846,-9.434 -20.513,-0.081 -23.596,2.534 -2.89,2.45 -2.375,16.082 -2.138,22.533 0.016,0.43 0.06,4.693 0,5.122 -0.04,0.287 -2.744,2.414 -8.115,6.38 -5.21,3.756 -11.228,5.775 -18.053,6.059 -10.238,0.425 -15.999,-3.94 -25.073,-10.326 -6.05,-4.257 -9.074,-8.996 -9.074,-14.216 1.586,-18.372 -4.586,-23.956 -18.517,-16.75 -15.402,7.958 -19.261,14.557 -35.683,6.61 -10.948,-5.297 -30.752,2.117 -59.41,22.243 l -21.881,13.6 a 51.071,51.071 0 0 1 -55.16,-0.798 15.13,15.13 0 0 0 -1.209,-0.725 c -11.13,-5.96 -14.687,29.104 -15.19,35.398 -0.293,10.786 -1.396,15.85 1.98,38.401 1.21,8.087 5.428,12.686 7.059,16.955 6.177,16.177 -3.264,23.431 -11.698,22.907 -8.434,-0.525 -15.475,-9.077 -10.818,-22.932 1.786,-5.315 4.362,-9.12 6.198,-16.93 4.62,-19.644 4.734,-27.922 2.585,-38.401 -4.953,-24.143 -12.824,-57.86 -31.187,-69.718 -25.023,-16.159 -52.73,-29.335 -63.815,-15.63 -3.593,4.443 -7.325,6.23 -10.875,3.115 -3.55,-3.115 -4.557,-5.921 -11.433,-20.197 -3.427,-7.114 -7.255,-12.365 -7.794,-13.3 -10.09,-17.5 -30.718,-26.671 -40.43,-31.924 a 1101.092,1101.092 0 0 1 -27.323,-15.28 z" />
    </mask>
    <pattern
       id="V-2"
       width="258"
       height="258"
       x="-257.77"
       y="-257.606"
       patternUnits="userSpaceOnUse">
      <use
         xlink:href="#l"
         id="use71-6" />
    </pattern>
    <pattern
       id="X-4"
       width="258"
       height="258"
       x="-246.97"
       y="-230.293"
       patternUnits="userSpaceOnUse">
      <use
         xlink:href="#m"
         id="use75-6" />
    </pattern>
    <mask
       id="mask13697"
       fill="#ffffff">
      <path
         id="path13695"
         d="m 39.063,330.866 c -1.516,-1.191 -6.334,-3.987 -11.244,-6.883 -5.73,-3.378 -18.257,-9.594 -21.938,-15.286 -3.68,-5.693 -5.858,-6.93 -5.858,-17.045 a 28.319,28.319 0 0 1 14.151,-24.521 l 428.818,-256.315 0.672,-0.373 0.348,-0.237 10.724,-6.41 c 0.232,-0.133 0.465,-0.264 0.7,-0.391 2.16,-1.05 4.181,-1.858 6.115,-2.437 a 28.3,28.3 0 0 1 13.645,-0.256 c 2.53,0.675 5.136,1.735 7.956,3.143 l 4.206,2.256 c 2.369,1.344 4.905,2.888 7.674,4.615 267.45,153.459 411.1,236.514 430.949,249.167 12.961,8.263 16.77,25.468 8.508,38.43 a 27.832,27.832 0 0 1 -9.45,9.083 l -38.12,22.226 -34.316,30.094 c -35.243,-10.455 -58.583,-12.097 -70.02,-4.924 -3.983,2.499 -11.176,-2.09 -17.444,-5.928 -6.27,-3.84 -20.67,8.134 -27.487,14.05 -2.904,2.52 -4.269,6.082 -4.095,10.688 a 14.941,14.941 0 0 1 -8.123,13.865 c -46.801,-12.582 -77.429,-8.331 -100.16,3.347 -10.084,5.181 -18.704,9.812 -25.884,13.71 a 4.874,4.874 0 0 0 -0.587,8.191 l 3.197,2.383 a 7.915,7.915 0 0 1 -0.291,12.9 l -5.161,3.495 c -15.61,-8.576 -23.71,-13.252 -24.297,-14.03 -0.047,-0.063 -2.194,0.715 -6.44,2.334 a 20,20 0 0 1 -2.627,0.8 c -13.404,3.09 -24.56,1.6 -33.471,-4.47 -13.846,-9.434 -20.513,-0.081 -23.596,2.534 -2.89,2.45 -2.375,16.082 -2.138,22.533 0.016,0.43 0.06,4.693 0,5.122 -0.04,0.287 -2.744,2.414 -8.115,6.38 -5.21,3.756 -11.228,5.775 -18.053,6.059 -10.238,0.425 -15.999,-3.94 -25.073,-10.326 -6.05,-4.257 -9.074,-8.996 -9.074,-14.216 1.586,-18.372 -4.586,-23.956 -18.517,-16.75 -15.402,7.958 -19.261,14.557 -35.683,6.61 -10.948,-5.297 -30.752,2.117 -59.41,22.243 l -21.881,13.6 a 51.071,51.071 0 0 1 -55.16,-0.798 15.13,15.13 0 0 0 -1.209,-0.725 c -11.13,-5.96 -14.687,29.104 -15.19,35.398 -0.293,10.786 -1.396,15.85 1.98,38.401 1.21,8.087 5.428,12.686 7.059,16.955 6.177,16.177 -3.264,23.431 -11.698,22.907 -8.434,-0.525 -15.475,-9.077 -10.818,-22.932 1.786,-5.315 4.362,-9.12 6.198,-16.93 4.62,-19.644 4.734,-27.922 2.585,-38.401 -4.953,-24.143 -12.824,-57.86 -31.187,-69.718 -25.023,-16.159 -52.73,-29.335 -63.815,-15.63 -3.593,4.443 -7.325,6.23 -10.875,3.115 -3.55,-3.115 -4.557,-5.921 -11.433,-20.197 -3.427,-7.114 -7.255,-12.365 -7.794,-13.3 -10.09,-17.5 -30.718,-26.671 -40.43,-31.924 a 1101.092,1101.092 0 0 1 -27.323,-15.28 z" />
    </mask>
    <pattern
       id="Z-3"
       width="258"
       height="258"
       x="-257.77"
       y="-257.606"
       patternUnits="userSpaceOnUse">
      <use
         xlink:href="#n"
         id="use79-9" />
    </pattern>
    <pattern
       id="ab-5"
       width="258"
       height="258"
       x="-246.97"
       y="-230.293"
       patternUnits="userSpaceOnUse">
      <use
         xlink:href="#o"
         id="use83-9" />
    </pattern>
    <mask
       id="mask13721"
       fill="#ffffff">
      <path
         id="path13719"
         d="m 39.063,330.866 c -1.516,-1.191 -6.334,-3.987 -11.244,-6.883 -5.73,-3.378 -18.257,-9.594 -21.938,-15.286 -3.68,-5.693 -5.858,-6.93 -5.858,-17.045 a 28.319,28.319 0 0 1 14.151,-24.521 l 428.818,-256.315 0.672,-0.373 0.348,-0.237 10.724,-6.41 c 0.232,-0.133 0.465,-0.264 0.7,-0.391 2.16,-1.05 4.181,-1.858 6.115,-2.437 a 28.3,28.3 0 0 1 13.645,-0.256 c 2.53,0.675 5.136,1.735 7.956,3.143 l 4.206,2.256 c 2.369,1.344 4.905,2.888 7.674,4.615 267.45,153.459 411.1,236.514 430.949,249.167 12.961,8.263 16.77,25.468 8.508,38.43 a 27.832,27.832 0 0 1 -9.45,9.083 l -38.12,22.226 -34.316,30.094 c -35.243,-10.455 -58.583,-12.097 -70.02,-4.924 -3.983,2.499 -11.176,-2.09 -17.444,-5.928 -6.27,-3.84 -20.67,8.134 -27.487,14.05 -2.904,2.52 -4.269,6.082 -4.095,10.688 a 14.941,14.941 0 0 1 -8.123,13.865 c -46.801,-12.582 -77.429,-8.331 -100.16,3.347 -10.084,5.181 -18.704,9.812 -25.884,13.71 a 4.874,4.874 0 0 0 -0.587,8.191 l 3.197,2.383 a 7.915,7.915 0 0 1 -0.291,12.9 l -5.161,3.495 c -15.61,-8.576 -23.71,-13.252 -24.297,-14.03 -0.047,-0.063 -2.194,0.715 -6.44,2.334 a 20,20 0 0 1 -2.627,0.8 c -13.404,3.09 -24.56,1.6 -33.471,-4.47 -13.846,-9.434 -20.513,-0.081 -23.596,2.534 -2.89,2.45 -2.375,16.082 -2.138,22.533 0.016,0.43 0.06,4.693 0,5.122 -0.04,0.287 -2.744,2.414 -8.115,6.38 -5.21,3.756 -11.228,5.775 -18.053,6.059 -10.238,0.425 -15.999,-3.94 -25.073,-10.326 -6.05,-4.257 -9.074,-8.996 -9.074,-14.216 1.586,-18.372 -4.586,-23.956 -18.517,-16.75 -15.402,7.958 -19.261,14.557 -35.683,6.61 -10.948,-5.297 -30.752,2.117 -59.41,22.243 l -21.881,13.6 a 51.071,51.071 0 0 1 -55.16,-0.798 15.13,15.13 0 0 0 -1.209,-0.725 c -11.13,-5.96 -14.687,29.104 -15.19,35.398 -0.293,10.786 -1.396,15.85 1.98,38.401 1.21,8.087 5.428,12.686 7.059,16.955 6.177,16.177 -3.264,23.431 -11.698,22.907 -8.434,-0.525 -15.475,-9.077 -10.818,-22.932 1.786,-5.315 4.362,-9.12 6.198,-16.93 4.62,-19.644 4.734,-27.922 2.585,-38.401 -4.953,-24.143 -12.824,-57.86 -31.187,-69.718 -25.023,-16.159 -52.73,-29.335 -63.815,-15.63 -3.593,4.443 -7.325,6.23 -10.875,3.115 -3.55,-3.115 -4.557,-5.921 -11.433,-20.197 -3.427,-7.114 -7.255,-12.365 -7.794,-13.3 -10.09,-17.5 -30.718,-26.671 -40.43,-31.924 a 1101.092,1101.092 0 0 1 -27.323,-15.28 z" />
    </mask>
    <pattern
       id="ad-2"
       width="258"
       height="258"
       x="-257.77"
       y="-257.606"
       patternUnits="userSpaceOnUse">
      <use
         xlink:href="#p"
         id="use87-5" />
    </pattern>
    <pattern
       id="af-6"
       width="258"
       height="258"
       x="-246.97"
       y="-230.293"
       patternUnits="userSpaceOnUse">
      <use
         xlink:href="#q"
         id="use91-6" />
    </pattern>
    <mask
       id="mask13745"
       fill="#ffffff">
      <path
         id="path13743"
         d="m 39.063,330.866 c -1.516,-1.191 -6.334,-3.987 -11.244,-6.883 -5.73,-3.378 -18.257,-9.594 -21.938,-15.286 -3.68,-5.693 -5.858,-6.93 -5.858,-17.045 a 28.319,28.319 0 0 1 14.151,-24.521 l 428.818,-256.315 0.672,-0.373 0.348,-0.237 10.724,-6.41 c 0.232,-0.133 0.465,-0.264 0.7,-0.391 2.16,-1.05 4.181,-1.858 6.115,-2.437 a 28.3,28.3 0 0 1 13.645,-0.256 c 2.53,0.675 5.136,1.735 7.956,3.143 l 4.206,2.256 c 2.369,1.344 4.905,2.888 7.674,4.615 267.45,153.459 411.1,236.514 430.949,249.167 12.961,8.263 16.77,25.468 8.508,38.43 a 27.832,27.832 0 0 1 -9.45,9.083 l -38.12,22.226 -34.316,30.094 c -35.243,-10.455 -58.583,-12.097 -70.02,-4.924 -3.983,2.499 -11.176,-2.09 -17.444,-5.928 -6.27,-3.84 -20.67,8.134 -27.487,14.05 -2.904,2.52 -4.269,6.082 -4.095,10.688 a 14.941,14.941 0 0 1 -8.123,13.865 c -46.801,-12.582 -77.429,-8.331 -100.16,3.347 -10.084,5.181 -18.704,9.812 -25.884,13.71 a 4.874,4.874 0 0 0 -0.587,8.191 l 3.197,2.383 a 7.915,7.915 0 0 1 -0.291,12.9 l -5.161,3.495 c -15.61,-8.576 -23.71,-13.252 -24.297,-14.03 -0.047,-0.063 -2.194,0.715 -6.44,2.334 a 20,20 0 0 1 -2.627,0.8 c -13.404,3.09 -24.56,1.6 -33.471,-4.47 -13.846,-9.434 -20.513,-0.081 -23.596,2.534 -2.89,2.45 -2.375,16.082 -2.138,22.533 0.016,0.43 0.06,4.693 0,5.122 -0.04,0.287 -2.744,2.414 -8.115,6.38 -5.21,3.756 -11.228,5.775 -18.053,6.059 -10.238,0.425 -15.999,-3.94 -25.073,-10.326 -6.05,-4.257 -9.074,-8.996 -9.074,-14.216 1.586,-18.372 -4.586,-23.956 -18.517,-16.75 -15.402,7.958 -19.261,14.557 -35.683,6.61 -10.948,-5.297 -30.752,2.117 -59.41,22.243 l -21.881,13.6 a 51.071,51.071 0 0 1 -55.16,-0.798 15.13,15.13 0 0 0 -1.209,-0.725 c -11.13,-5.96 -14.687,29.104 -15.19,35.398 -0.293,10.786 -1.396,15.85 1.98,38.401 1.21,8.087 5.428,12.686 7.059,16.955 6.177,16.177 -3.264,23.431 -11.698,22.907 -8.434,-0.525 -15.475,-9.077 -10.818,-22.932 1.786,-5.315 4.362,-9.12 6.198,-16.93 4.62,-19.644 4.734,-27.922 2.585,-38.401 -4.953,-24.143 -12.824,-57.86 -31.187,-69.718 -25.023,-16.159 -52.73,-29.335 -63.815,-15.63 -3.593,4.443 -7.325,6.23 -10.875,3.115 -3.55,-3.115 -4.557,-5.921 -11.433,-20.197 -3.427,-7.114 -7.255,-12.365 -7.794,-13.3 -10.09,-17.5 -30.718,-26.671 -40.43,-31.924 a 1101.092,1101.092 0 0 1 -27.323,-15.28 z" />
    </mask>
    <pattern
       id="ah-2"
       width="258"
       height="258"
       x="-257.77"
       y="-257.606"
       patternUnits="userSpaceOnUse">
      <use
         xlink:href="#r"
         id="use95-0" />
    </pattern>
    <pattern
       id="aj-5"
       width="258"
       height="258"
       x="-246.97"
       y="-230.293"
       patternUnits="userSpaceOnUse">
      <use
         xlink:href="#s"
         id="use99-5" />
    </pattern>
    <mask
       id="path-4-outside-1"
       maskUnits="userSpaceOnUse"
       x="0"
       y="82"
       width="582"
       height="485"
       fill="#000000">
      <rect
         fill="#ffffff"
         y="82"
         width="582"
         height="485"
         id="rect3777"
         x="0" />
      <path
         fill-rule="evenodd"
         clip-rule="evenodd"
         d="M 507.885,518.245 C 535.746,476.724 552,426.76 552,373 552,228.854 435.146,112 291,112 146.854,112 30,228.854 30,373 30,429.708 48.0851,482.192 78.8023,524.998 96.3844,513.071 115.965,508.798 136,521 c 34.776,21.179 46.853,-4.131 55.968,-23.233 8.316,-17.426 14.165,-29.684 32.532,3.233 38.5,69 44.5,-98 44.5,-98 v -54 h 46 v 54 c 0,0 5.97,167 44.47,98 18.769,-33.639 27.445,-20.693 39.113,-3.283 12.265,18.302 27.837,41.538 61.917,20.783 17.139,-10.438 33.113,-8.654 47.385,-0.255 z"
         id="path3779" />
    </mask>
    <marker
       inkscape:isstock="true"
       style="overflow:visible"
       id="Arrow2Mend-2"
       refX="0"
       refY="0"
       orient="auto"
       inkscape:stockid="Arrow2Mend">
      <path
         transform="scale(-0.6)"
         d="M 8.7185878,4.0337352 -2.2072895,0.01601326 8.7185884,-4.0017078 c -1.7454984,2.3720609 -1.7354408,5.6174519 -6e-7,8.035443 z"
         style="fill:#464646;fill-opacity:1;fill-rule:evenodd;stroke:#464646;stroke-width:0.625;stroke-linejoin:round;stroke-opacity:1"
         id="path890-3" />
    </marker>
    <marker
       inkscape:isstock="true"
       style="overflow:visible"
       id="marker1227-4"
       refX="0"
       refY="0"
       orient="auto"
       inkscape:stockid="Arrow1Send">
      <path
         transform="matrix(-0.2,0,0,-0.2,-1.2,0)"
         style="fill:#000000;fill-opacity:1;fill-rule:evenodd;stroke:#000000;stroke-width:1pt;stroke-opacity:1"
         d="M 0,0 5,-5 -12.5,0 5,5 Z"
         id="path1225-7" />
    </marker>
    <marker
       inkscape:isstock="true"
       style="overflow:visible"
       id="Arrow2Lend-5"
       refX="0"
       refY="0"
       orient="auto"
       inkscape:stockid="Arrow2Lend">
      <path
         transform="matrix(-1.1,0,0,-1.1,-1.1,0)"
         d="M 8.7185878,4.0337352 -2.2072895,0.01601326 8.7185884,-4.0017078 c -1.7454984,2.3720609 -1.7354408,5.6174519 -6e-7,8.035443 z"
         style="fill:#000000;fill-opacity:1;fill-rule:evenodd;stroke:#000000;stroke-width:0.625;stroke-linejoin:round;stroke-opacity:1"
         id="path884-1" />
    </marker>
    <marker
       inkscape:isstock="true"
       style="overflow:visible"
       id="marker1167-0"
       refX="0"
       refY="0"
       orient="auto"
       inkscape:stockid="Arrow1Mend">
      <path
         transform="matrix(-0.4,0,0,-0.4,-4,0)"
         style="fill:#000000;fill-opacity:1;fill-rule:evenodd;stroke:#000000;stroke-width:1pt;stroke-opacity:1"
         d="M 0,0 5,-5 -12.5,0 5,5 Z"
         id="path1165-9" />
    </marker>
    <marker
       inkscape:isstock="true"
       style="overflow:visible"
       id="Arrow1Send-6"
       refX="0"
       refY="0"
       orient="auto"
       inkscape:stockid="Arrow1Send">
      <path
         transform="matrix(-0.2,0,0,-0.2,-1.2,0)"
         style="fill:#000000;fill-opacity:1;fill-rule:evenodd;stroke:#000000;stroke-width:1pt;stroke-opacity:1"
         d="M 0,0 5,-5 -12.5,0 5,5 Z"
         id="path878-5" />
    </marker>
    <marker
       inkscape:isstock="true"
       style="overflow:visible"
       id="Arrow1Mend-0"
       refX="0"
       refY="0"
       orient="auto"
       inkscape:stockid="Arrow1Mend">
      <path
         transform="matrix(-0.4,0,0,-0.4,-4,0)"
         style="fill:#000000;fill-opacity:1;fill-rule:evenodd;stroke:#000000;stroke-width:1pt;stroke-opacity:1"
         d="M 0,0 5,-5 -12.5,0 5,5 Z"
         id="path872-88" />
    </marker>
    <marker
       inkscape:stockid="Arrow2Mend"
       orient="auto"
       refY="0"
       refX="0"
       id="Arrow2Mend-4-4"
       style="overflow:visible"
       inkscape:isstock="true">
      <path
         id="path890-4-30"
         style="fill:#969696;fill-opacity:1;fill-rule:evenodd;stroke:#969696;stroke-width:0.625;stroke-linejoin:round;stroke-opacity:1"
         d="M 8.7185878,4.0337352 -2.2072895,0.01601326 8.7185884,-4.0017078 c -1.7454984,2.3720609 -1.7354408,5.6174519 -6e-7,8.035443 z"
         transform="scale(-0.6)" />
    </marker>
    <style
       id="style959-8">.cls-1{fill:#fff;}.cls-2{fill:#5e464d;}.cls-3{mask:url(#mask);}.cls-4{fill:#3fe0c5;}</style>
    <mask
       maskUnits="userSpaceOnUse"
       height="259.02"
       width="265.39"
       y="20.13"
       x="0"
       id="mask-2">
      <g
         id="mask-4-5">
        <polygon
           points="265.39,20.13 265.39,279.15 0,279.15 0,20.13 "
           class="cls-1"
           id="path-3-7" />
      </g>
    </mask>
    <marker
       inkscape:isstock="true"
       style="overflow:visible"
       id="Arrow2Mend-5-1"
       refX="0"
       refY="0"
       orient="auto"
       inkscape:stockid="Arrow2Mend">
      <path
         transform="scale(-0.6)"
         d="M 8.7185878,4.0337352 -2.2072895,0.01601326 8.7185884,-4.0017078 c -1.7454984,2.3720609 -1.7354408,5.6174519 -6e-7,8.035443 z"
         style="fill:#464646;fill-opacity:1;fill-rule:evenodd;stroke:#464646;stroke-width:0.625;stroke-linejoin:round;stroke-opacity:1"
         id="path890-6-4" />
    </marker>
    <marker
       inkscape:isstock="true"
       style="overflow:visible"
       id="marker1227-2-4"
       refX="0"
       refY="0"
       orient="auto"
       inkscape:stockid="Arrow1Send">
      <path
         transform="matrix(-0.2,0,0,-0.2,-1.2,0)"
         style="fill:#000000;fill-opacity:1;fill-rule:evenodd;stroke:#000000;stroke-width:1pt;stroke-opacity:1"
         d="M 0,0 5,-5 -12.5,0 5,5 Z"
         id="path1225-4-2" />
    </marker>
    <marker
       inkscape:isstock="true"
       style="overflow:visible"
       id="Arrow2Lend-7-2"
       refX="0"
       refY="0"
       orient="auto"
       inkscape:stockid="Arrow2Lend">
      <path
         transform="matrix(-1.1,0,0,-1.1,-1.1,0)"
         d="M 8.7185878,4.0337352 -2.2072895,0.01601326 8.7185884,-4.0017078 c -1.7454984,2.3720609 -1.7354408,5.6174519 -6e-7,8.035443 z"
         style="fill:#000000;fill-opacity:1;fill-rule:evenodd;stroke:#000000;stroke-width:0.625;stroke-linejoin:round;stroke-opacity:1"
         id="path884-7-8" />
    </marker>
    <marker
       inkscape:isstock="true"
       style="overflow:visible"
       id="marker1167-4-3"
       refX="0"
       refY="0"
       orient="auto"
       inkscape:stockid="Arrow1Mend">
      <path
         transform="matrix(-0.4,0,0,-0.4,-4,0)"
         style="fill:#000000;fill-opacity:1;fill-rule:evenodd;stroke:#000000;stroke-width:1pt;stroke-opacity:1"
         d="M 0,0 5,-5 -12.5,0 5,5 Z"
         id="path1165-1-4" />
    </marker>
    <marker
       inkscape:isstock="true"
       style="overflow:visible"
       id="Arrow1Send-9-6"
       refX="0"
       refY="0"
       orient="auto"
       inkscape:stockid="Arrow1Send">
      <path
         transform="matrix(-0.2,0,0,-0.2,-1.2,0)"
         style="fill:#000000;fill-opacity:1;fill-rule:evenodd;stroke:#000000;stroke-width:1pt;stroke-opacity:1"
         d="M 0,0 5,-5 -12.5,0 5,5 Z"
         id="path878-0-2" />
    </marker>
    <marker
       inkscape:isstock="true"
       style="overflow:visible"
       id="Arrow1Mend-3-9"
       refX="0"
       refY="0"
       orient="auto"
       inkscape:stockid="Arrow1Mend">
      <path
         transform="matrix(-0.4,0,0,-0.4,-4,0)"
         style="fill:#000000;fill-opacity:1;fill-rule:evenodd;stroke:#000000;stroke-width:1pt;stroke-opacity:1"
         d="M 0,0 5,-5 -12.5,0 5,5 Z"
         id="path872-8-9" />
    </marker>
    <marker
       inkscape:stockid="Arrow2Mend"
       orient="auto"
       refY="0"
       refX="0"
       id="Arrow2Mend-4-6-7"
       style="overflow:visible"
       inkscape:isstock="true">
      <path
         id="path890-4-3-1"
         style="fill:#969696;fill-opacity:1;fill-rule:evenodd;stroke:#969696;stroke-width:0.625;stroke-linejoin:round;stroke-opacity:1"
         d="M 8.7185878,4.0337352 -2.2072895,0.01601326 8.7185884,-4.0017078 c -1.7454984,2.3720609 -1.7354408,5.6174519 -6e-7,8.035443 z"
         transform="scale(-0.6)" />
    </marker>
    <style
       id="style959-3-1">.cls-1{fill:#fff;}.cls-2{fill:#5e464d;}.cls-3{mask:url(#mask);}.cls-4{fill:#3fe0c5;}</style>
    <mask
       maskUnits="userSpaceOnUse"
       height="259.02"
       width="265.39"
       y="20.13"
       x="0"
       id="mask-3-7">
      <g
         id="mask-4-1-7">
        <polygon
           points="265.39,20.13 265.39,279.15 0,279.15 0,20.13 "
           class="cls-1"
           id="path-3-9-1" />
      </g>
    </mask>
    <linearGradient
       id="linearGradient8021"
       osb:paint="solid">
      <stop
         style="stop-color:#53cbc9;stop-opacity:1;"
         offset="0"
         id="stop8019" />
    </linearGradient>
    <linearGradient
       id="linearGradient7660"
       osb:paint="solid">
      <stop
         style="stop-color:#e1147b;stop-opacity:1;"
         offset="0"
         id="stop7658" />
    </linearGradient>
    <clipPath
       clipPathUnits="userSpaceOnUse"
       id="clipPath22038">
      <rect
         style="opacity:1;fill:none;fill-opacity:1;stroke:#e1147b;stroke-width:4.72151;stroke-miterlimit:4;stroke-dasharray:none;stroke-opacity:1;paint-order:markers stroke fill"
         id="rect22040"
         width="37.326485"
         height="38.251156"
         x="-4.154963"
         y="-2.4049139"
         ry="0.84249103" />
    </clipPath>
    <mask
       id="mask-2-49"
       fill="#ffffff">
      <circle
         id="use21900"
         cx="10.374472"
         cy="11.424031"
         r="4.2333331"
         style="stroke-width:0.264583" />
    </mask>
    <clipPath
       clipPathUnits="userSpaceOnUse"
       id="clipPath51331">
      <rect
         style="opacity:1;fill:#3d1d5a;stroke:#e1147b;stroke-width:4.498;paint-order:markers stroke fill"
         id="rect51333"
         width="72.221329"
         height="69.943047"
         x="56.816158"
         y="38.365005"
         ry="2.6750169" />
    </clipPath>
    <linearGradient
       id="linearGradient20315"
       osb:paint="solid">
      <stop
         style="stop-color:#3d1d5a;stop-opacity:1;"
         offset="0"
         id="stop20313" />
    </linearGradient>
    <linearGradient
       id="linearGradient10858"
       osb:paint="solid">
      <stop
         style="stop-color:#000000;stop-opacity:1;"
         offset="0"
         id="stop10856" />
    </linearGradient>
    <marker
       inkscape:isstock="true"
       style="overflow:visible"
       id="Arrow2Mend-3"
       refX="0"
       refY="0"
       orient="auto"
       inkscape:stockid="Arrow2Mend">
      <path
         transform="scale(-0.6)"
         d="M 8.7185878,4.0337352 -2.2072895,0.01601326 8.7185884,-4.0017078 c -1.7454984,2.3720609 -1.7354408,5.6174519 -6e-7,8.035443 z"
         style="fill:#464646;fill-opacity:1;fill-rule:evenodd;stroke:#464646;stroke-width:0.625;stroke-linejoin:round;stroke-opacity:1"
         id="path890-5" />
    </marker>
    <marker
       inkscape:isstock="true"
       style="overflow:visible"
       id="marker1227-6"
       refX="0"
       refY="0"
       orient="auto"
       inkscape:stockid="Arrow1Send">
      <path
         transform="matrix(-0.2,0,0,-0.2,-1.2,0)"
         style="fill:#000000;fill-opacity:1;fill-rule:evenodd;stroke:#000000;stroke-width:1pt;stroke-opacity:1"
         d="M 0,0 5,-5 -12.5,0 5,5 Z"
         id="path1225-6" />
    </marker>
    <marker
       inkscape:isstock="true"
       style="overflow:visible"
       id="Arrow2Lend-0"
       refX="0"
       refY="0"
       orient="auto"
       inkscape:stockid="Arrow2Lend">
      <path
         transform="matrix(-1.1,0,0,-1.1,-1.1,0)"
         d="M 8.7185878,4.0337352 -2.2072895,0.01601326 8.7185884,-4.0017078 c -1.7454984,2.3720609 -1.7354408,5.6174519 -6e-7,8.035443 z"
         style="fill:#000000;fill-opacity:1;fill-rule:evenodd;stroke:#000000;stroke-width:0.625;stroke-linejoin:round;stroke-opacity:1"
         id="path884-3" />
    </marker>
    <marker
       inkscape:isstock="true"
       style="overflow:visible"
       id="marker1167-03"
       refX="0"
       refY="0"
       orient="auto"
       inkscape:stockid="Arrow1Mend">
      <path
         transform="matrix(-0.4,0,0,-0.4,-4,0)"
         style="fill:#000000;fill-opacity:1;fill-rule:evenodd;stroke:#000000;stroke-width:1pt;stroke-opacity:1"
         d="M 0,0 5,-5 -12.5,0 5,5 Z"
         id="path1165-93" />
    </marker>
    <marker
       inkscape:isstock="true"
       style="overflow:visible"
       id="Arrow1Send-4"
       refX="0"
       refY="0"
       orient="auto"
       inkscape:stockid="Arrow1Send">
      <path
         transform="matrix(-0.2,0,0,-0.2,-1.2,0)"
         style="fill:#000000;fill-opacity:1;fill-rule:evenodd;stroke:#000000;stroke-width:1pt;stroke-opacity:1"
         d="M 0,0 5,-5 -12.5,0 5,5 Z"
         id="path878-6" />
    </marker>
    <marker
       inkscape:isstock="true"
       style="overflow:visible"
       id="Arrow1Mend-5"
       refX="0"
       refY="0"
       orient="auto"
       inkscape:stockid="Arrow1Mend">
      <path
         transform="matrix(-0.4,0,0,-0.4,-4,0)"
         style="fill:#000000;fill-opacity:1;fill-rule:evenodd;stroke:#000000;stroke-width:1pt;stroke-opacity:1"
         d="M 0,0 5,-5 -12.5,0 5,5 Z"
         id="path872-3" />
    </marker>
    <marker
       inkscape:stockid="Arrow2Mend"
       orient="auto"
       refY="0"
       refX="0"
       id="Arrow2Mend-4-61"
       style="overflow:visible"
       inkscape:isstock="true">
      <path
         id="path890-4-2"
         style="fill:#969696;fill-opacity:1;fill-rule:evenodd;stroke:#969696;stroke-width:0.625;stroke-linejoin:round;stroke-opacity:1"
         d="M 8.7185878,4.0337352 -2.2072895,0.01601326 8.7185884,-4.0017078 c -1.7454984,2.3720609 -1.7354408,5.6174519 -6e-7,8.035443 z"
         transform="scale(-0.6)" />
    </marker>
    <style
       id="style959-2">.cls-1{fill:#fff;}.cls-2{fill:#5e464d;}.cls-3{mask:url(#mask);}.cls-4{fill:#3fe0c5;}</style>
    <mask
       maskUnits="userSpaceOnUse"
       height="259.02"
       width="265.39"
       y="20.13"
       x="0"
       id="mask-8">
      <g
         id="mask-4-7">
        <polygon
           points="265.39,20.13 265.39,279.15 0,279.15 0,20.13 "
           class="cls-1"
           id="path-3-1" />
      </g>
    </mask>
    <marker
       inkscape:isstock="true"
       style="overflow:visible"
       id="Arrow2Mend-5-5"
       refX="0"
       refY="0"
       orient="auto"
       inkscape:stockid="Arrow2Mend">
      <path
         transform="scale(-0.6)"
         d="M 8.7185878,4.0337352 -2.2072895,0.01601326 8.7185884,-4.0017078 c -1.7454984,2.3720609 -1.7354408,5.6174519 -6e-7,8.035443 z"
         style="fill:#464646;fill-opacity:1;fill-rule:evenodd;stroke:#464646;stroke-width:0.625;stroke-linejoin:round;stroke-opacity:1"
         id="path890-6-5" />
    </marker>
    <marker
       inkscape:isstock="true"
       style="overflow:visible"
       id="marker1227-2-7"
       refX="0"
       refY="0"
       orient="auto"
       inkscape:stockid="Arrow1Send">
      <path
         transform="matrix(-0.2,0,0,-0.2,-1.2,0)"
         style="fill:#000000;fill-opacity:1;fill-rule:evenodd;stroke:#000000;stroke-width:1pt;stroke-opacity:1"
         d="M 0,0 5,-5 -12.5,0 5,5 Z"
         id="path1225-4-5" />
    </marker>
    <marker
       inkscape:isstock="true"
       style="overflow:visible"
       id="Arrow2Lend-7-7"
       refX="0"
       refY="0"
       orient="auto"
       inkscape:stockid="Arrow2Lend">
      <path
         transform="matrix(-1.1,0,0,-1.1,-1.1,0)"
         d="M 8.7185878,4.0337352 -2.2072895,0.01601326 8.7185884,-4.0017078 c -1.7454984,2.3720609 -1.7354408,5.6174519 -6e-7,8.035443 z"
         style="fill:#000000;fill-opacity:1;fill-rule:evenodd;stroke:#000000;stroke-width:0.625;stroke-linejoin:round;stroke-opacity:1"
         id="path884-7-89" />
    </marker>
    <marker
       inkscape:isstock="true"
       style="overflow:visible"
       id="marker1167-4-0"
       refX="0"
       refY="0"
       orient="auto"
       inkscape:stockid="Arrow1Mend">
      <path
         transform="matrix(-0.4,0,0,-0.4,-4,0)"
         style="fill:#000000;fill-opacity:1;fill-rule:evenodd;stroke:#000000;stroke-width:1pt;stroke-opacity:1"
         d="M 0,0 5,-5 -12.5,0 5,5 Z"
         id="path1165-1-9" />
    </marker>
    <marker
       inkscape:isstock="true"
       style="overflow:visible"
       id="Arrow1Send-9-4"
       refX="0"
       refY="0"
       orient="auto"
       inkscape:stockid="Arrow1Send">
      <path
         transform="matrix(-0.2,0,0,-0.2,-1.2,0)"
         style="fill:#000000;fill-opacity:1;fill-rule:evenodd;stroke:#000000;stroke-width:1pt;stroke-opacity:1"
         d="M 0,0 5,-5 -12.5,0 5,5 Z"
         id="path878-0-4" />
    </marker>
    <marker
       inkscape:isstock="true"
       style="overflow:visible"
       id="Arrow1Mend-3-6"
       refX="0"
       refY="0"
       orient="auto"
       inkscape:stockid="Arrow1Mend">
      <path
         transform="matrix(-0.4,0,0,-0.4,-4,0)"
         style="fill:#000000;fill-opacity:1;fill-rule:evenodd;stroke:#000000;stroke-width:1pt;stroke-opacity:1"
         d="M 0,0 5,-5 -12.5,0 5,5 Z"
         id="path872-8-0" />
    </marker>
    <marker
       inkscape:stockid="Arrow2Mend"
       orient="auto"
       refY="0"
       refX="0"
       id="Arrow2Mend-4-6-4"
       style="overflow:visible"
       inkscape:isstock="true">
      <path
         id="path890-4-3-3"
         style="fill:#969696;fill-opacity:1;fill-rule:evenodd;stroke:#969696;stroke-width:0.625;stroke-linejoin:round;stroke-opacity:1"
         d="M 8.7185878,4.0337352 -2.2072895,0.01601326 8.7185884,-4.0017078 c -1.7454984,2.3720609 -1.7354408,5.6174519 -6e-7,8.035443 z"
         transform="scale(-0.6)" />
    </marker>
    <style
       id="style959-3-5">.cls-1{fill:#fff;}.cls-2{fill:#5e464d;}.cls-3{mask:url(#mask);}.cls-4{fill:#3fe0c5;}</style>
    <mask
       maskUnits="userSpaceOnUse"
       height="259.02"
       width="265.39"
       y="20.13"
       x="0"
       id="mask-3-77">
      <g
         id="mask-4-1-8">
        <polygon
           points="265.39,20.13 265.39,279.15 0,279.15 0,20.13 "
           class="cls-1"
           id="path-3-9-8" />
      </g>
    </mask>
    <clipPath
       id="clip0-8">
      <rect
         width="156"
         height="158"
         fill="#ffffff"
         id="rect1004-3"
         x="0"
         y="0" />
    </clipPath>
    <radialGradient
       id="paint2_radial-8"
       cx="0"
       cy="0"
       r="1"
       gradientUnits="userSpaceOnUse"
       gradientTransform="matrix(58.1183,0,0,58.2454,78.2514,138.761)">
      <stop
         stop-color="#FFF100"
         id="stop995-1" />
      <stop
         offset="0.23"
         stop-color="#F9E500"
         id="stop997-0" />
      <stop
         offset="0.67"
         stop-color="#F0D500"
         id="stop999-3" />
      <stop
         offset="1"
         stop-color="#EDCF00"
         id="stop1001-4" />
    </radialGradient>
    <filter
       id="filter0_f-5"
       x="2.1875"
       y="133"
       width="151.62601"
       height="35"
       filterUnits="userSpaceOnUse"
       color-interpolation-filters="sRGB">
      <feFlood
         flood-opacity="0"
         result="BackgroundImageFix"
         id="feFlood972-2" />
      <feBlend
         mode="normal"
         in="SourceGraphic"
         in2="BackgroundImageFix"
         result="shape"
         id="feBlend974-9" />
      <feGaussianBlur
         stdDeviation="5"
         result="effect1_foregroundBlur"
         id="feGaussianBlur976-0" />
    </filter>
    <pattern
       id="w-7-9"
       width="258"
       height="258"
       x="-257.977"
       y="-258"
       patternUnits="userSpaceOnUse">
      <use
         xlink:href="#a"
         id="use17-2-4" />
    </pattern>
    <mask
       id="x-2-4"
       fill="#ffffff">
      <path
         id="use126-6-8"
         d="m 39.063,330.866 c -1.516,-1.191 -6.334,-3.987 -11.244,-6.883 -5.73,-3.378 -18.257,-9.594 -21.938,-15.286 -3.68,-5.693 -5.858,-6.93 -5.858,-17.045 a 28.319,28.319 0 0 1 14.151,-24.521 l 428.818,-256.315 0.672,-0.373 0.348,-0.237 10.724,-6.41 c 0.232,-0.133 0.465,-0.264 0.7,-0.391 2.16,-1.05 4.181,-1.858 6.115,-2.437 a 28.3,28.3 0 0 1 13.645,-0.256 c 2.53,0.675 5.136,1.735 7.956,3.143 l 4.206,2.256 c 2.369,1.344 4.905,2.888 7.674,4.615 267.45,153.459 411.1,236.514 430.949,249.167 12.961,8.263 16.77,25.468 8.508,38.43 a 27.832,27.832 0 0 1 -9.45,9.083 l -38.12,22.226 -34.316,30.094 c -35.243,-10.455 -58.583,-12.097 -70.02,-4.924 -3.983,2.499 -11.176,-2.09 -17.444,-5.928 -6.27,-3.84 -20.67,8.134 -27.487,14.05 -2.904,2.52 -4.269,6.082 -4.095,10.688 a 14.941,14.941 0 0 1 -8.123,13.865 c -46.801,-12.582 -77.429,-8.331 -100.16,3.347 -10.084,5.181 -18.704,9.812 -25.884,13.71 a 4.874,4.874 0 0 0 -0.587,8.191 l 3.197,2.383 a 7.915,7.915 0 0 1 -0.291,12.9 l -5.161,3.495 c -15.61,-8.576 -23.71,-13.252 -24.297,-14.03 -0.047,-0.063 -2.194,0.715 -6.44,2.334 a 20,20 0 0 1 -2.627,0.8 c -13.404,3.09 -24.56,1.6 -33.471,-4.47 -13.846,-9.434 -20.513,-0.081 -23.596,2.534 -2.89,2.45 -2.375,16.082 -2.138,22.533 0.016,0.43 0.06,4.693 0,5.122 -0.04,0.287 -2.744,2.414 -8.115,6.38 -5.21,3.756 -11.228,5.775 -18.053,6.059 -10.238,0.425 -15.999,-3.94 -25.073,-10.326 -6.05,-4.257 -9.074,-8.996 -9.074,-14.216 1.586,-18.372 -4.586,-23.956 -18.517,-16.75 -15.402,7.958 -19.261,14.557 -35.683,6.61 -10.948,-5.297 -30.752,2.117 -59.41,22.243 l -21.881,13.6 a 51.071,51.071 0 0 1 -55.16,-0.798 15.13,15.13 0 0 0 -1.209,-0.725 c -11.13,-5.96 -14.687,29.104 -15.19,35.398 -0.293,10.786 -1.396,15.85 1.98,38.401 1.21,8.087 5.428,12.686 7.059,16.955 6.177,16.177 -3.264,23.431 -11.698,22.907 -8.434,-0.525 -15.475,-9.077 -10.818,-22.932 1.786,-5.315 4.362,-9.12 6.198,-16.93 4.62,-19.644 4.734,-27.922 2.585,-38.401 -4.953,-24.143 -12.824,-57.86 -31.187,-69.718 -25.023,-16.159 -52.73,-29.335 -63.815,-15.63 -3.593,4.443 -7.325,6.23 -10.875,3.115 -3.55,-3.115 -4.557,-5.921 -11.433,-20.197 -3.427,-7.114 -7.255,-12.365 -7.794,-13.3 -10.09,-17.5 -30.718,-26.671 -40.43,-31.924 a 1101.092,1101.092 0 0 1 -27.323,-15.28 z" />
    </mask>
    <pattern
       id="A-7-3"
       width="258"
       height="258"
       x="-257.77"
       y="-257.606"
       patternUnits="userSpaceOnUse">
      <use
         xlink:href="#b"
         id="use26-7-0" />
    </pattern>
    <pattern
       id="D-0-5"
       width="258"
       height="258"
       x="-246.97"
       y="-230.293"
       patternUnits="userSpaceOnUse">
      <use
         xlink:href="#c"
         id="use35-3-3" />
    </pattern>
    <mask
       id="mask13577-8"
       fill="#ffffff">
      <path
         id="path13575-1"
         d="m 39.063,330.866 c -1.516,-1.191 -6.334,-3.987 -11.244,-6.883 -5.73,-3.378 -18.257,-9.594 -21.938,-15.286 -3.68,-5.693 -5.858,-6.93 -5.858,-17.045 a 28.319,28.319 0 0 1 14.151,-24.521 l 428.818,-256.315 0.672,-0.373 0.348,-0.237 10.724,-6.41 c 0.232,-0.133 0.465,-0.264 0.7,-0.391 2.16,-1.05 4.181,-1.858 6.115,-2.437 a 28.3,28.3 0 0 1 13.645,-0.256 c 2.53,0.675 5.136,1.735 7.956,3.143 l 4.206,2.256 c 2.369,1.344 4.905,2.888 7.674,4.615 267.45,153.459 411.1,236.514 430.949,249.167 12.961,8.263 16.77,25.468 8.508,38.43 a 27.832,27.832 0 0 1 -9.45,9.083 l -38.12,22.226 -34.316,30.094 c -35.243,-10.455 -58.583,-12.097 -70.02,-4.924 -3.983,2.499 -11.176,-2.09 -17.444,-5.928 -6.27,-3.84 -20.67,8.134 -27.487,14.05 -2.904,2.52 -4.269,6.082 -4.095,10.688 a 14.941,14.941 0 0 1 -8.123,13.865 c -46.801,-12.582 -77.429,-8.331 -100.16,3.347 -10.084,5.181 -18.704,9.812 -25.884,13.71 a 4.874,4.874 0 0 0 -0.587,8.191 l 3.197,2.383 a 7.915,7.915 0 0 1 -0.291,12.9 l -5.161,3.495 c -15.61,-8.576 -23.71,-13.252 -24.297,-14.03 -0.047,-0.063 -2.194,0.715 -6.44,2.334 a 20,20 0 0 1 -2.627,0.8 c -13.404,3.09 -24.56,1.6 -33.471,-4.47 -13.846,-9.434 -20.513,-0.081 -23.596,2.534 -2.89,2.45 -2.375,16.082 -2.138,22.533 0.016,0.43 0.06,4.693 0,5.122 -0.04,0.287 -2.744,2.414 -8.115,6.38 -5.21,3.756 -11.228,5.775 -18.053,6.059 -10.238,0.425 -15.999,-3.94 -25.073,-10.326 -6.05,-4.257 -9.074,-8.996 -9.074,-14.216 1.586,-18.372 -4.586,-23.956 -18.517,-16.75 -15.402,7.958 -19.261,14.557 -35.683,6.61 -10.948,-5.297 -30.752,2.117 -59.41,22.243 l -21.881,13.6 a 51.071,51.071 0 0 1 -55.16,-0.798 15.13,15.13 0 0 0 -1.209,-0.725 c -11.13,-5.96 -14.687,29.104 -15.19,35.398 -0.293,10.786 -1.396,15.85 1.98,38.401 1.21,8.087 5.428,12.686 7.059,16.955 6.177,16.177 -3.264,23.431 -11.698,22.907 -8.434,-0.525 -15.475,-9.077 -10.818,-22.932 1.786,-5.315 4.362,-9.12 6.198,-16.93 4.62,-19.644 4.734,-27.922 2.585,-38.401 -4.953,-24.143 -12.824,-57.86 -31.187,-69.718 -25.023,-16.159 -52.73,-29.335 -63.815,-15.63 -3.593,4.443 -7.325,6.23 -10.875,3.115 -3.55,-3.115 -4.557,-5.921 -11.433,-20.197 -3.427,-7.114 -7.255,-12.365 -7.794,-13.3 -10.09,-17.5 -30.718,-26.671 -40.43,-31.924 a 1101.092,1101.092 0 0 1 -27.323,-15.28 z" />
    </mask>
    <pattern
       id="F-5-1"
       width="258"
       height="258"
       x="-257.77"
       y="-257.606"
       patternUnits="userSpaceOnUse">
      <use
         xlink:href="#d"
         id="use39-9-4" />
    </pattern>
    <pattern
       id="H-6-9"
       width="258"
       height="258"
       x="-246.97"
       y="-230.293"
       patternUnits="userSpaceOnUse">
      <use
         xlink:href="#e"
         id="use43-0-7" />
    </pattern>
    <mask
       id="mask13601-0"
       fill="#ffffff">
      <path
         id="path13599-9"
         d="m 39.063,330.866 c -1.516,-1.191 -6.334,-3.987 -11.244,-6.883 -5.73,-3.378 -18.257,-9.594 -21.938,-15.286 -3.68,-5.693 -5.858,-6.93 -5.858,-17.045 a 28.319,28.319 0 0 1 14.151,-24.521 l 428.818,-256.315 0.672,-0.373 0.348,-0.237 10.724,-6.41 c 0.232,-0.133 0.465,-0.264 0.7,-0.391 2.16,-1.05 4.181,-1.858 6.115,-2.437 a 28.3,28.3 0 0 1 13.645,-0.256 c 2.53,0.675 5.136,1.735 7.956,3.143 l 4.206,2.256 c 2.369,1.344 4.905,2.888 7.674,4.615 267.45,153.459 411.1,236.514 430.949,249.167 12.961,8.263 16.77,25.468 8.508,38.43 a 27.832,27.832 0 0 1 -9.45,9.083 l -38.12,22.226 -34.316,30.094 c -35.243,-10.455 -58.583,-12.097 -70.02,-4.924 -3.983,2.499 -11.176,-2.09 -17.444,-5.928 -6.27,-3.84 -20.67,8.134 -27.487,14.05 -2.904,2.52 -4.269,6.082 -4.095,10.688 a 14.941,14.941 0 0 1 -8.123,13.865 c -46.801,-12.582 -77.429,-8.331 -100.16,3.347 -10.084,5.181 -18.704,9.812 -25.884,13.71 a 4.874,4.874 0 0 0 -0.587,8.191 l 3.197,2.383 a 7.915,7.915 0 0 1 -0.291,12.9 l -5.161,3.495 c -15.61,-8.576 -23.71,-13.252 -24.297,-14.03 -0.047,-0.063 -2.194,0.715 -6.44,2.334 a 20,20 0 0 1 -2.627,0.8 c -13.404,3.09 -24.56,1.6 -33.471,-4.47 -13.846,-9.434 -20.513,-0.081 -23.596,2.534 -2.89,2.45 -2.375,16.082 -2.138,22.533 0.016,0.43 0.06,4.693 0,5.122 -0.04,0.287 -2.744,2.414 -8.115,6.38 -5.21,3.756 -11.228,5.775 -18.053,6.059 -10.238,0.425 -15.999,-3.94 -25.073,-10.326 -6.05,-4.257 -9.074,-8.996 -9.074,-14.216 1.586,-18.372 -4.586,-23.956 -18.517,-16.75 -15.402,7.958 -19.261,14.557 -35.683,6.61 -10.948,-5.297 -30.752,2.117 -59.41,22.243 l -21.881,13.6 a 51.071,51.071 0 0 1 -55.16,-0.798 15.13,15.13 0 0 0 -1.209,-0.725 c -11.13,-5.96 -14.687,29.104 -15.19,35.398 -0.293,10.786 -1.396,15.85 1.98,38.401 1.21,8.087 5.428,12.686 7.059,16.955 6.177,16.177 -3.264,23.431 -11.698,22.907 -8.434,-0.525 -15.475,-9.077 -10.818,-22.932 1.786,-5.315 4.362,-9.12 6.198,-16.93 4.62,-19.644 4.734,-27.922 2.585,-38.401 -4.953,-24.143 -12.824,-57.86 -31.187,-69.718 -25.023,-16.159 -52.73,-29.335 -63.815,-15.63 -3.593,4.443 -7.325,6.23 -10.875,3.115 -3.55,-3.115 -4.557,-5.921 -11.433,-20.197 -3.427,-7.114 -7.255,-12.365 -7.794,-13.3 -10.09,-17.5 -30.718,-26.671 -40.43,-31.924 a 1101.092,1101.092 0 0 1 -27.323,-15.28 z" />
    </mask>
    <pattern
       id="J-6-5"
       width="258"
       height="258"
       x="-257.77"
       y="-257.606"
       patternUnits="userSpaceOnUse">
      <use
         xlink:href="#f"
         id="use47-7-6" />
    </pattern>
    <pattern
       id="L-7-5"
       width="258"
       height="258"
       x="-246.97"
       y="-230.293"
       patternUnits="userSpaceOnUse">
      <use
         xlink:href="#g"
         id="use51-6-2" />
    </pattern>
    <mask
       id="mask13625-3"
       fill="#ffffff">
      <path
         id="path13623-8"
         d="m 39.063,330.866 c -1.516,-1.191 -6.334,-3.987 -11.244,-6.883 -5.73,-3.378 -18.257,-9.594 -21.938,-15.286 -3.68,-5.693 -5.858,-6.93 -5.858,-17.045 a 28.319,28.319 0 0 1 14.151,-24.521 l 428.818,-256.315 0.672,-0.373 0.348,-0.237 10.724,-6.41 c 0.232,-0.133 0.465,-0.264 0.7,-0.391 2.16,-1.05 4.181,-1.858 6.115,-2.437 a 28.3,28.3 0 0 1 13.645,-0.256 c 2.53,0.675 5.136,1.735 7.956,3.143 l 4.206,2.256 c 2.369,1.344 4.905,2.888 7.674,4.615 267.45,153.459 411.1,236.514 430.949,249.167 12.961,8.263 16.77,25.468 8.508,38.43 a 27.832,27.832 0 0 1 -9.45,9.083 l -38.12,22.226 -34.316,30.094 c -35.243,-10.455 -58.583,-12.097 -70.02,-4.924 -3.983,2.499 -11.176,-2.09 -17.444,-5.928 -6.27,-3.84 -20.67,8.134 -27.487,14.05 -2.904,2.52 -4.269,6.082 -4.095,10.688 a 14.941,14.941 0 0 1 -8.123,13.865 c -46.801,-12.582 -77.429,-8.331 -100.16,3.347 -10.084,5.181 -18.704,9.812 -25.884,13.71 a 4.874,4.874 0 0 0 -0.587,8.191 l 3.197,2.383 a 7.915,7.915 0 0 1 -0.291,12.9 l -5.161,3.495 c -15.61,-8.576 -23.71,-13.252 -24.297,-14.03 -0.047,-0.063 -2.194,0.715 -6.44,2.334 a 20,20 0 0 1 -2.627,0.8 c -13.404,3.09 -24.56,1.6 -33.471,-4.47 -13.846,-9.434 -20.513,-0.081 -23.596,2.534 -2.89,2.45 -2.375,16.082 -2.138,22.533 0.016,0.43 0.06,4.693 0,5.122 -0.04,0.287 -2.744,2.414 -8.115,6.38 -5.21,3.756 -11.228,5.775 -18.053,6.059 -10.238,0.425 -15.999,-3.94 -25.073,-10.326 -6.05,-4.257 -9.074,-8.996 -9.074,-14.216 1.586,-18.372 -4.586,-23.956 -18.517,-16.75 -15.402,7.958 -19.261,14.557 -35.683,6.61 -10.948,-5.297 -30.752,2.117 -59.41,22.243 l -21.881,13.6 a 51.071,51.071 0 0 1 -55.16,-0.798 15.13,15.13 0 0 0 -1.209,-0.725 c -11.13,-5.96 -14.687,29.104 -15.19,35.398 -0.293,10.786 -1.396,15.85 1.98,38.401 1.21,8.087 5.428,12.686 7.059,16.955 6.177,16.177 -3.264,23.431 -11.698,22.907 -8.434,-0.525 -15.475,-9.077 -10.818,-22.932 1.786,-5.315 4.362,-9.12 6.198,-16.93 4.62,-19.644 4.734,-27.922 2.585,-38.401 -4.953,-24.143 -12.824,-57.86 -31.187,-69.718 -25.023,-16.159 -52.73,-29.335 -63.815,-15.63 -3.593,4.443 -7.325,6.23 -10.875,3.115 -3.55,-3.115 -4.557,-5.921 -11.433,-20.197 -3.427,-7.114 -7.255,-12.365 -7.794,-13.3 -10.09,-17.5 -30.718,-26.671 -40.43,-31.924 a 1101.092,1101.092 0 0 1 -27.323,-15.28 z" />
    </mask>
    <pattern
       id="N-0-7"
       width="258"
       height="258"
       x="-257.77"
       y="-257.606"
       patternUnits="userSpaceOnUse">
      <use
         xlink:href="#h"
         id="use55-0-8" />
    </pattern>
    <pattern
       id="P-2-4"
       width="258"
       height="258"
       x="-246.97"
       y="-230.293"
       patternUnits="userSpaceOnUse">
      <use
         xlink:href="#i"
         id="use59-2-9" />
    </pattern>
    <mask
       id="mask13649-6"
       fill="#ffffff">
      <path
         id="path13647-7"
         d="m 39.063,330.866 c -1.516,-1.191 -6.334,-3.987 -11.244,-6.883 -5.73,-3.378 -18.257,-9.594 -21.938,-15.286 -3.68,-5.693 -5.858,-6.93 -5.858,-17.045 a 28.319,28.319 0 0 1 14.151,-24.521 l 428.818,-256.315 0.672,-0.373 0.348,-0.237 10.724,-6.41 c 0.232,-0.133 0.465,-0.264 0.7,-0.391 2.16,-1.05 4.181,-1.858 6.115,-2.437 a 28.3,28.3 0 0 1 13.645,-0.256 c 2.53,0.675 5.136,1.735 7.956,3.143 l 4.206,2.256 c 2.369,1.344 4.905,2.888 7.674,4.615 267.45,153.459 411.1,236.514 430.949,249.167 12.961,8.263 16.77,25.468 8.508,38.43 a 27.832,27.832 0 0 1 -9.45,9.083 l -38.12,22.226 -34.316,30.094 c -35.243,-10.455 -58.583,-12.097 -70.02,-4.924 -3.983,2.499 -11.176,-2.09 -17.444,-5.928 -6.27,-3.84 -20.67,8.134 -27.487,14.05 -2.904,2.52 -4.269,6.082 -4.095,10.688 a 14.941,14.941 0 0 1 -8.123,13.865 c -46.801,-12.582 -77.429,-8.331 -100.16,3.347 -10.084,5.181 -18.704,9.812 -25.884,13.71 a 4.874,4.874 0 0 0 -0.587,8.191 l 3.197,2.383 a 7.915,7.915 0 0 1 -0.291,12.9 l -5.161,3.495 c -15.61,-8.576 -23.71,-13.252 -24.297,-14.03 -0.047,-0.063 -2.194,0.715 -6.44,2.334 a 20,20 0 0 1 -2.627,0.8 c -13.404,3.09 -24.56,1.6 -33.471,-4.47 -13.846,-9.434 -20.513,-0.081 -23.596,2.534 -2.89,2.45 -2.375,16.082 -2.138,22.533 0.016,0.43 0.06,4.693 0,5.122 -0.04,0.287 -2.744,2.414 -8.115,6.38 -5.21,3.756 -11.228,5.775 -18.053,6.059 -10.238,0.425 -15.999,-3.94 -25.073,-10.326 -6.05,-4.257 -9.074,-8.996 -9.074,-14.216 1.586,-18.372 -4.586,-23.956 -18.517,-16.75 -15.402,7.958 -19.261,14.557 -35.683,6.61 -10.948,-5.297 -30.752,2.117 -59.41,22.243 l -21.881,13.6 a 51.071,51.071 0 0 1 -55.16,-0.798 15.13,15.13 0 0 0 -1.209,-0.725 c -11.13,-5.96 -14.687,29.104 -15.19,35.398 -0.293,10.786 -1.396,15.85 1.98,38.401 1.21,8.087 5.428,12.686 7.059,16.955 6.177,16.177 -3.264,23.431 -11.698,22.907 -8.434,-0.525 -15.475,-9.077 -10.818,-22.932 1.786,-5.315 4.362,-9.12 6.198,-16.93 4.62,-19.644 4.734,-27.922 2.585,-38.401 -4.953,-24.143 -12.824,-57.86 -31.187,-69.718 -25.023,-16.159 -52.73,-29.335 -63.815,-15.63 -3.593,4.443 -7.325,6.23 -10.875,3.115 -3.55,-3.115 -4.557,-5.921 -11.433,-20.197 -3.427,-7.114 -7.255,-12.365 -7.794,-13.3 -10.09,-17.5 -30.718,-26.671 -40.43,-31.924 a 1101.092,1101.092 0 0 1 -27.323,-15.28 z" />
    </mask>
    <pattern
       id="R-1-0"
       width="258"
       height="258"
       x="-257.77"
       y="-257.606"
       patternUnits="userSpaceOnUse">
      <use
         xlink:href="#j"
         id="use63-6-5" />
    </pattern>
    <pattern
       id="T-0-1"
       width="258"
       height="258"
       x="-246.97"
       y="-230.293"
       patternUnits="userSpaceOnUse">
      <use
         xlink:href="#k"
         id="use67-4-5" />
    </pattern>
    <mask
       id="mask13673-4"
       fill="#ffffff">
      <path
         id="path13671-5"
         d="m 39.063,330.866 c -1.516,-1.191 -6.334,-3.987 -11.244,-6.883 -5.73,-3.378 -18.257,-9.594 -21.938,-15.286 -3.68,-5.693 -5.858,-6.93 -5.858,-17.045 a 28.319,28.319 0 0 1 14.151,-24.521 l 428.818,-256.315 0.672,-0.373 0.348,-0.237 10.724,-6.41 c 0.232,-0.133 0.465,-0.264 0.7,-0.391 2.16,-1.05 4.181,-1.858 6.115,-2.437 a 28.3,28.3 0 0 1 13.645,-0.256 c 2.53,0.675 5.136,1.735 7.956,3.143 l 4.206,2.256 c 2.369,1.344 4.905,2.888 7.674,4.615 267.45,153.459 411.1,236.514 430.949,249.167 12.961,8.263 16.77,25.468 8.508,38.43 a 27.832,27.832 0 0 1 -9.45,9.083 l -38.12,22.226 -34.316,30.094 c -35.243,-10.455 -58.583,-12.097 -70.02,-4.924 -3.983,2.499 -11.176,-2.09 -17.444,-5.928 -6.27,-3.84 -20.67,8.134 -27.487,14.05 -2.904,2.52 -4.269,6.082 -4.095,10.688 a 14.941,14.941 0 0 1 -8.123,13.865 c -46.801,-12.582 -77.429,-8.331 -100.16,3.347 -10.084,5.181 -18.704,9.812 -25.884,13.71 a 4.874,4.874 0 0 0 -0.587,8.191 l 3.197,2.383 a 7.915,7.915 0 0 1 -0.291,12.9 l -5.161,3.495 c -15.61,-8.576 -23.71,-13.252 -24.297,-14.03 -0.047,-0.063 -2.194,0.715 -6.44,2.334 a 20,20 0 0 1 -2.627,0.8 c -13.404,3.09 -24.56,1.6 -33.471,-4.47 -13.846,-9.434 -20.513,-0.081 -23.596,2.534 -2.89,2.45 -2.375,16.082 -2.138,22.533 0.016,0.43 0.06,4.693 0,5.122 -0.04,0.287 -2.744,2.414 -8.115,6.38 -5.21,3.756 -11.228,5.775 -18.053,6.059 -10.238,0.425 -15.999,-3.94 -25.073,-10.326 -6.05,-4.257 -9.074,-8.996 -9.074,-14.216 1.586,-18.372 -4.586,-23.956 -18.517,-16.75 -15.402,7.958 -19.261,14.557 -35.683,6.61 -10.948,-5.297 -30.752,2.117 -59.41,22.243 l -21.881,13.6 a 51.071,51.071 0 0 1 -55.16,-0.798 15.13,15.13 0 0 0 -1.209,-0.725 c -11.13,-5.96 -14.687,29.104 -15.19,35.398 -0.293,10.786 -1.396,15.85 1.98,38.401 1.21,8.087 5.428,12.686 7.059,16.955 6.177,16.177 -3.264,23.431 -11.698,22.907 -8.434,-0.525 -15.475,-9.077 -10.818,-22.932 1.786,-5.315 4.362,-9.12 6.198,-16.93 4.62,-19.644 4.734,-27.922 2.585,-38.401 -4.953,-24.143 -12.824,-57.86 -31.187,-69.718 -25.023,-16.159 -52.73,-29.335 -63.815,-15.63 -3.593,4.443 -7.325,6.23 -10.875,3.115 -3.55,-3.115 -4.557,-5.921 -11.433,-20.197 -3.427,-7.114 -7.255,-12.365 -7.794,-13.3 -10.09,-17.5 -30.718,-26.671 -40.43,-31.924 a 1101.092,1101.092 0 0 1 -27.323,-15.28 z" />
    </mask>
    <pattern
       id="V-2-1"
       width="258"
       height="258"
       x="-257.77"
       y="-257.606"
       patternUnits="userSpaceOnUse">
      <use
         xlink:href="#l"
         id="use71-6-3" />
    </pattern>
    <pattern
       id="X-4-8"
       width="258"
       height="258"
       x="-246.97"
       y="-230.293"
       patternUnits="userSpaceOnUse">
      <use
         xlink:href="#m"
         id="use75-6-1" />
    </pattern>
    <mask
       id="mask13697-3"
       fill="#ffffff">
      <path
         id="path13695-7"
         d="m 39.063,330.866 c -1.516,-1.191 -6.334,-3.987 -11.244,-6.883 -5.73,-3.378 -18.257,-9.594 -21.938,-15.286 -3.68,-5.693 -5.858,-6.93 -5.858,-17.045 a 28.319,28.319 0 0 1 14.151,-24.521 l 428.818,-256.315 0.672,-0.373 0.348,-0.237 10.724,-6.41 c 0.232,-0.133 0.465,-0.264 0.7,-0.391 2.16,-1.05 4.181,-1.858 6.115,-2.437 a 28.3,28.3 0 0 1 13.645,-0.256 c 2.53,0.675 5.136,1.735 7.956,3.143 l 4.206,2.256 c 2.369,1.344 4.905,2.888 7.674,4.615 267.45,153.459 411.1,236.514 430.949,249.167 12.961,8.263 16.77,25.468 8.508,38.43 a 27.832,27.832 0 0 1 -9.45,9.083 l -38.12,22.226 -34.316,30.094 c -35.243,-10.455 -58.583,-12.097 -70.02,-4.924 -3.983,2.499 -11.176,-2.09 -17.444,-5.928 -6.27,-3.84 -20.67,8.134 -27.487,14.05 -2.904,2.52 -4.269,6.082 -4.095,10.688 a 14.941,14.941 0 0 1 -8.123,13.865 c -46.801,-12.582 -77.429,-8.331 -100.16,3.347 -10.084,5.181 -18.704,9.812 -25.884,13.71 a 4.874,4.874 0 0 0 -0.587,8.191 l 3.197,2.383 a 7.915,7.915 0 0 1 -0.291,12.9 l -5.161,3.495 c -15.61,-8.576 -23.71,-13.252 -24.297,-14.03 -0.047,-0.063 -2.194,0.715 -6.44,2.334 a 20,20 0 0 1 -2.627,0.8 c -13.404,3.09 -24.56,1.6 -33.471,-4.47 -13.846,-9.434 -20.513,-0.081 -23.596,2.534 -2.89,2.45 -2.375,16.082 -2.138,22.533 0.016,0.43 0.06,4.693 0,5.122 -0.04,0.287 -2.744,2.414 -8.115,6.38 -5.21,3.756 -11.228,5.775 -18.053,6.059 -10.238,0.425 -15.999,-3.94 -25.073,-10.326 -6.05,-4.257 -9.074,-8.996 -9.074,-14.216 1.586,-18.372 -4.586,-23.956 -18.517,-16.75 -15.402,7.958 -19.261,14.557 -35.683,6.61 -10.948,-5.297 -30.752,2.117 -59.41,22.243 l -21.881,13.6 a 51.071,51.071 0 0 1 -55.16,-0.798 15.13,15.13 0 0 0 -1.209,-0.725 c -11.13,-5.96 -14.687,29.104 -15.19,35.398 -0.293,10.786 -1.396,15.85 1.98,38.401 1.21,8.087 5.428,12.686 7.059,16.955 6.177,16.177 -3.264,23.431 -11.698,22.907 -8.434,-0.525 -15.475,-9.077 -10.818,-22.932 1.786,-5.315 4.362,-9.12 6.198,-16.93 4.62,-19.644 4.734,-27.922 2.585,-38.401 -4.953,-24.143 -12.824,-57.86 -31.187,-69.718 -25.023,-16.159 -52.73,-29.335 -63.815,-15.63 -3.593,4.443 -7.325,6.23 -10.875,3.115 -3.55,-3.115 -4.557,-5.921 -11.433,-20.197 -3.427,-7.114 -7.255,-12.365 -7.794,-13.3 -10.09,-17.5 -30.718,-26.671 -40.43,-31.924 a 1101.092,1101.092 0 0 1 -27.323,-15.28 z" />
    </mask>
    <pattern
       id="Z-3-8"
       width="258"
       height="258"
       x="-257.77"
       y="-257.606"
       patternUnits="userSpaceOnUse">
      <use
         xlink:href="#n"
         id="use79-9-1" />
    </pattern>
    <pattern
       id="ab-5-9"
       width="258"
       height="258"
       x="-246.97"
       y="-230.293"
       patternUnits="userSpaceOnUse">
      <use
         xlink:href="#o"
         id="use83-9-1" />
    </pattern>
    <mask
       id="mask13721-9"
       fill="#ffffff">
      <path
         id="path13719-1"
         d="m 39.063,330.866 c -1.516,-1.191 -6.334,-3.987 -11.244,-6.883 -5.73,-3.378 -18.257,-9.594 -21.938,-15.286 -3.68,-5.693 -5.858,-6.93 -5.858,-17.045 a 28.319,28.319 0 0 1 14.151,-24.521 l 428.818,-256.315 0.672,-0.373 0.348,-0.237 10.724,-6.41 c 0.232,-0.133 0.465,-0.264 0.7,-0.391 2.16,-1.05 4.181,-1.858 6.115,-2.437 a 28.3,28.3 0 0 1 13.645,-0.256 c 2.53,0.675 5.136,1.735 7.956,3.143 l 4.206,2.256 c 2.369,1.344 4.905,2.888 7.674,4.615 267.45,153.459 411.1,236.514 430.949,249.167 12.961,8.263 16.77,25.468 8.508,38.43 a 27.832,27.832 0 0 1 -9.45,9.083 l -38.12,22.226 -34.316,30.094 c -35.243,-10.455 -58.583,-12.097 -70.02,-4.924 -3.983,2.499 -11.176,-2.09 -17.444,-5.928 -6.27,-3.84 -20.67,8.134 -27.487,14.05 -2.904,2.52 -4.269,6.082 -4.095,10.688 a 14.941,14.941 0 0 1 -8.123,13.865 c -46.801,-12.582 -77.429,-8.331 -100.16,3.347 -10.084,5.181 -18.704,9.812 -25.884,13.71 a 4.874,4.874 0 0 0 -0.587,8.191 l 3.197,2.383 a 7.915,7.915 0 0 1 -0.291,12.9 l -5.161,3.495 c -15.61,-8.576 -23.71,-13.252 -24.297,-14.03 -0.047,-0.063 -2.194,0.715 -6.44,2.334 a 20,20 0 0 1 -2.627,0.8 c -13.404,3.09 -24.56,1.6 -33.471,-4.47 -13.846,-9.434 -20.513,-0.081 -23.596,2.534 -2.89,2.45 -2.375,16.082 -2.138,22.533 0.016,0.43 0.06,4.693 0,5.122 -0.04,0.287 -2.744,2.414 -8.115,6.38 -5.21,3.756 -11.228,5.775 -18.053,6.059 -10.238,0.425 -15.999,-3.94 -25.073,-10.326 -6.05,-4.257 -9.074,-8.996 -9.074,-14.216 1.586,-18.372 -4.586,-23.956 -18.517,-16.75 -15.402,7.958 -19.261,14.557 -35.683,6.61 -10.948,-5.297 -30.752,2.117 -59.41,22.243 l -21.881,13.6 a 51.071,51.071 0 0 1 -55.16,-0.798 15.13,15.13 0 0 0 -1.209,-0.725 c -11.13,-5.96 -14.687,29.104 -15.19,35.398 -0.293,10.786 -1.396,15.85 1.98,38.401 1.21,8.087 5.428,12.686 7.059,16.955 6.177,16.177 -3.264,23.431 -11.698,22.907 -8.434,-0.525 -15.475,-9.077 -10.818,-22.932 1.786,-5.315 4.362,-9.12 6.198,-16.93 4.62,-19.644 4.734,-27.922 2.585,-38.401 -4.953,-24.143 -12.824,-57.86 -31.187,-69.718 -25.023,-16.159 -52.73,-29.335 -63.815,-15.63 -3.593,4.443 -7.325,6.23 -10.875,3.115 -3.55,-3.115 -4.557,-5.921 -11.433,-20.197 -3.427,-7.114 -7.255,-12.365 -7.794,-13.3 -10.09,-17.5 -30.718,-26.671 -40.43,-31.924 a 1101.092,1101.092 0 0 1 -27.323,-15.28 z" />
    </mask>
    <pattern
       id="ad-2-0"
       width="258"
       height="258"
       x="-257.77"
       y="-257.606"
       patternUnits="userSpaceOnUse">
      <use
         xlink:href="#p"
         id="use87-5-6" />
    </pattern>
    <pattern
       id="af-6-9"
       width="258"
       height="258"
       x="-246.97"
       y="-230.293"
       patternUnits="userSpaceOnUse">
      <use
         xlink:href="#q"
         id="use91-6-4" />
    </pattern>
    <mask
       id="mask13745-0"
       fill="#ffffff">
      <path
         id="path13743-4"
         d="m 39.063,330.866 c -1.516,-1.191 -6.334,-3.987 -11.244,-6.883 -5.73,-3.378 -18.257,-9.594 -21.938,-15.286 -3.68,-5.693 -5.858,-6.93 -5.858,-17.045 a 28.319,28.319 0 0 1 14.151,-24.521 l 428.818,-256.315 0.672,-0.373 0.348,-0.237 10.724,-6.41 c 0.232,-0.133 0.465,-0.264 0.7,-0.391 2.16,-1.05 4.181,-1.858 6.115,-2.437 a 28.3,28.3 0 0 1 13.645,-0.256 c 2.53,0.675 5.136,1.735 7.956,3.143 l 4.206,2.256 c 2.369,1.344 4.905,2.888 7.674,4.615 267.45,153.459 411.1,236.514 430.949,249.167 12.961,8.263 16.77,25.468 8.508,38.43 a 27.832,27.832 0 0 1 -9.45,9.083 l -38.12,22.226 -34.316,30.094 c -35.243,-10.455 -58.583,-12.097 -70.02,-4.924 -3.983,2.499 -11.176,-2.09 -17.444,-5.928 -6.27,-3.84 -20.67,8.134 -27.487,14.05 -2.904,2.52 -4.269,6.082 -4.095,10.688 a 14.941,14.941 0 0 1 -8.123,13.865 c -46.801,-12.582 -77.429,-8.331 -100.16,3.347 -10.084,5.181 -18.704,9.812 -25.884,13.71 a 4.874,4.874 0 0 0 -0.587,8.191 l 3.197,2.383 a 7.915,7.915 0 0 1 -0.291,12.9 l -5.161,3.495 c -15.61,-8.576 -23.71,-13.252 -24.297,-14.03 -0.047,-0.063 -2.194,0.715 -6.44,2.334 a 20,20 0 0 1 -2.627,0.8 c -13.404,3.09 -24.56,1.6 -33.471,-4.47 -13.846,-9.434 -20.513,-0.081 -23.596,2.534 -2.89,2.45 -2.375,16.082 -2.138,22.533 0.016,0.43 0.06,4.693 0,5.122 -0.04,0.287 -2.744,2.414 -8.115,6.38 -5.21,3.756 -11.228,5.775 -18.053,6.059 -10.238,0.425 -15.999,-3.94 -25.073,-10.326 -6.05,-4.257 -9.074,-8.996 -9.074,-14.216 1.586,-18.372 -4.586,-23.956 -18.517,-16.75 -15.402,7.958 -19.261,14.557 -35.683,6.61 -10.948,-5.297 -30.752,2.117 -59.41,22.243 l -21.881,13.6 a 51.071,51.071 0 0 1 -55.16,-0.798 15.13,15.13 0 0 0 -1.209,-0.725 c -11.13,-5.96 -14.687,29.104 -15.19,35.398 -0.293,10.786 -1.396,15.85 1.98,38.401 1.21,8.087 5.428,12.686 7.059,16.955 6.177,16.177 -3.264,23.431 -11.698,22.907 -8.434,-0.525 -15.475,-9.077 -10.818,-22.932 1.786,-5.315 4.362,-9.12 6.198,-16.93 4.62,-19.644 4.734,-27.922 2.585,-38.401 -4.953,-24.143 -12.824,-57.86 -31.187,-69.718 -25.023,-16.159 -52.73,-29.335 -63.815,-15.63 -3.593,4.443 -7.325,6.23 -10.875,3.115 -3.55,-3.115 -4.557,-5.921 -11.433,-20.197 -3.427,-7.114 -7.255,-12.365 -7.794,-13.3 -10.09,-17.5 -30.718,-26.671 -40.43,-31.924 a 1101.092,1101.092 0 0 1 -27.323,-15.28 z" />
    </mask>
    <pattern
       id="ah-2-7"
       width="258"
       height="258"
       x="-257.77"
       y="-257.606"
       patternUnits="userSpaceOnUse">
      <use
         xlink:href="#r"
         id="use95-0-5" />
    </pattern>
    <pattern
       id="aj-5-1"
       width="258"
       height="258"
       x="-246.97"
       y="-230.293"
       patternUnits="userSpaceOnUse">
      <use
         xlink:href="#s"
         id="use99-5-7" />
    </pattern>
    <mask
       id="path-4-outside-1-7"
       maskUnits="userSpaceOnUse"
       x="0"
       y="82"
       width="582"
       height="485"
       fill="#000000">
      <rect
         fill="#ffffff"
         y="82"
         width="582"
         height="485"
         id="rect3777-3"
         x="0" />
      <path
         fill-rule="evenodd"
         clip-rule="evenodd"
         d="M 507.885,518.245 C 535.746,476.724 552,426.76 552,373 552,228.854 435.146,112 291,112 146.854,112 30,228.854 30,373 30,429.708 48.0851,482.192 78.8023,524.998 96.3844,513.071 115.965,508.798 136,521 c 34.776,21.179 46.853,-4.131 55.968,-23.233 8.316,-17.426 14.165,-29.684 32.532,3.233 38.5,69 44.5,-98 44.5,-98 v -54 h 46 v 54 c 0,0 5.97,167 44.47,98 18.769,-33.639 27.445,-20.693 39.113,-3.283 12.265,18.302 27.837,41.538 61.917,20.783 17.139,-10.438 33.113,-8.654 47.385,-0.255 z"
         id="path3779-9" />
    </mask>
    <clipPath
       id="clipPath1281"
       clipPathUnits="userSpaceOnUse">
      <rect
         ry="0.61937886"
         y="48.739922"
         x="199.64638"
         height="39.477859"
         width="56.091892"
         id="rect1283"
         style="fill:none;fill-opacity:1;stroke:#67417f;stroke-width:2.44666;stroke-miterlimit:4;stroke-dasharray:none;stroke-opacity:1" />
    </clipPath>
    <clipPath
       clipPathUnits="userSpaceOnUse"
       id="clipPath1065-7">
      <path
         id="path1067-5"
         d="m 323.35864,-63.941333 -18.13655,47.247025 -0.19532,34.206845 -49.32588,0.566965 0.0323,-34.77381 -6.83588,-46.491071 z"
         style="fill:none;stroke:#000000;stroke-width:0.264583px;stroke-linecap:butt;stroke-linejoin:miter;stroke-opacity:1"
         sodipodi:nodetypes="cccccc" />
    </clipPath>
    <clipPath
       clipPathUnits="userSpaceOnUse"
       id="clipPath933">
      <rect
         style="fill:none;fill-opacity:0.968627;stroke:#67417f;stroke-width:2.64599"
         id="rect935"
         width="246.17589"
         height="229.69612"
         x="232.86879"
         y="-546.80597"
         ry="0.67603952" />
    </clipPath>
    <clipPath
       clipPathUnits="userSpaceOnUse"
       id="clipPath1710-1">
      <rect
         ry="0.63651317"
         y="-73.431465"
         x="272.31781"
         height="77.047333"
         width="84.41787"
         id="rect1712-4"
         style="fill:none;stroke:#000000;stroke-width:1.72289;stroke-miterlimit:4;stroke-dasharray:none;stroke-opacity:1" />
    </clipPath>
    <linearGradient
       id="SVGID_1_"
       gradientUnits="userSpaceOnUse"
       x1="-964.44482"
       y1="1270.2437"
       x2="-963.6745"
       y2="1270.2437"
       gradientTransform="matrix(52.1202,25.7774,24.3041,-55.2798,19296.428,94658.727)">
      <stop
         offset="0"
         style="stop-color:#006678"
         id="stop1009" />
      <stop
         offset="1"
         style="stop-color:#4FA8FF"
         id="stop1011" />
    </linearGradient>
    <marker
       inkscape:isstock="true"
       style="overflow:visible"
       id="Arrow2Mend-7"
       refX="0"
       refY="0"
       orient="auto"
       inkscape:stockid="Arrow2Mend">
      <path
         transform="scale(-0.6)"
         d="M 8.7185878,4.0337352 -2.2072895,0.01601326 8.7185884,-4.0017078 c -1.7454984,2.3720609 -1.7354408,5.6174519 -6e-7,8.035443 z"
         style="fill:#464646;fill-opacity:1;fill-rule:evenodd;stroke:#464646;stroke-width:0.625;stroke-linejoin:round;stroke-opacity:1"
         id="path890-0" />
    </marker>
    <marker
       inkscape:isstock="true"
       style="overflow:visible"
       id="marker1227-26"
       refX="0"
       refY="0"
       orient="auto"
       inkscape:stockid="Arrow1Send">
      <path
         transform="matrix(-0.2,0,0,-0.2,-1.2,0)"
         style="fill:#000000;fill-opacity:1;fill-rule:evenodd;stroke:#000000;stroke-width:1pt;stroke-opacity:1"
         d="M 0,0 5,-5 -12.5,0 5,5 Z"
         id="path1225-3" />
    </marker>
    <marker
       inkscape:isstock="true"
       style="overflow:visible"
       id="Arrow2Lend-09"
       refX="0"
       refY="0"
       orient="auto"
       inkscape:stockid="Arrow2Lend">
      <path
         transform="matrix(-1.1,0,0,-1.1,-1.1,0)"
         d="M 8.7185878,4.0337352 -2.2072895,0.01601326 8.7185884,-4.0017078 c -1.7454984,2.3720609 -1.7354408,5.6174519 -6e-7,8.035443 z"
         style="fill:#000000;fill-opacity:1;fill-rule:evenodd;stroke:#000000;stroke-width:0.625;stroke-linejoin:round;stroke-opacity:1"
         id="path884-9" />
    </marker>
    <marker
       inkscape:isstock="true"
       style="overflow:visible"
       id="marker1167-43"
       refX="0"
       refY="0"
       orient="auto"
       inkscape:stockid="Arrow1Mend">
      <path
         transform="matrix(-0.4,0,0,-0.4,-4,0)"
         style="fill:#000000;fill-opacity:1;fill-rule:evenodd;stroke:#000000;stroke-width:1pt;stroke-opacity:1"
         d="M 0,0 5,-5 -12.5,0 5,5 Z"
         id="path1165-8" />
    </marker>
    <marker
       inkscape:isstock="true"
       style="overflow:visible"
       id="Arrow1Send-7"
       refX="0"
       refY="0"
       orient="auto"
       inkscape:stockid="Arrow1Send">
      <path
         transform="matrix(-0.2,0,0,-0.2,-1.2,0)"
         style="fill:#000000;fill-opacity:1;fill-rule:evenodd;stroke:#000000;stroke-width:1pt;stroke-opacity:1"
         d="M 0,0 5,-5 -12.5,0 5,5 Z"
         id="path878-2" />
    </marker>
    <marker
       inkscape:isstock="true"
       style="overflow:visible"
       id="Arrow1Mend-1"
       refX="0"
       refY="0"
       orient="auto"
       inkscape:stockid="Arrow1Mend">
      <path
         transform="matrix(-0.4,0,0,-0.4,-4,0)"
         style="fill:#000000;fill-opacity:1;fill-rule:evenodd;stroke:#000000;stroke-width:1pt;stroke-opacity:1"
         d="M 0,0 5,-5 -12.5,0 5,5 Z"
         id="path872-2" />
    </marker>
    <marker
       inkscape:stockid="Arrow2Mend"
       orient="auto"
       refY="0"
       refX="0"
       id="Arrow2Mend-4-8"
       style="overflow:visible"
       inkscape:isstock="true">
      <path
         id="path890-4-7"
         style="fill:#969696;fill-opacity:1;fill-rule:evenodd;stroke:#969696;stroke-width:0.625;stroke-linejoin:round;stroke-opacity:1"
         d="M 8.7185878,4.0337352 -2.2072895,0.01601326 8.7185884,-4.0017078 c -1.7454984,2.3720609 -1.7354408,5.6174519 -6e-7,8.035443 z"
         transform="scale(-0.6)" />
    </marker>
    <style
       id="style959-24">.cls-1{fill:#fff;}.cls-2{fill:#5e464d;}.cls-3{mask:url(#mask);}.cls-4{fill:#3fe0c5;}</style>
    <mask
       maskUnits="userSpaceOnUse"
       height="259.02"
       width="265.39"
       y="20.13"
       x="0"
       id="mask-6">
      <g
         id="mask-4-2">
        <polygon
           points="265.39,20.13 265.39,279.15 0,279.15 0,20.13 "
           class="cls-1"
           id="path-3-3" />
      </g>
    </mask>
    <clipPath
       clipPathUnits="userSpaceOnUse"
       id="clipPath3520">
      <rect
         style="opacity:1;fill:none;fill-rule:evenodd;stroke:#000000;stroke-width:3.5432;stroke-opacity:0;paint-order:markers stroke fill"
         id="rect3522"
         width="88.788506"
         height="90.685699"
         x="14.39775"
         y="10.673061" />
    </clipPath>
    <linearGradient
       inkscape:collect="always"
       xlink:href="#linearGradient3547"
       id="linearGradient3549"
       x1="329.09311"
       y1="111.18901"
       x2="418.40787"
       y2="111.18901"
       gradientUnits="userSpaceOnUse" />
    <clipPath
       clipPathUnits="userSpaceOnUse"
       id="clipPath3555">
      <rect
         style="opacity:1;fill:none;fill-opacity:1;fill-rule:evenodd;stroke:#000000;stroke-width:3.5432;stroke-opacity:0;paint-order:markers stroke fill"
         id="rect3557"
         width="89.167946"
         height="83.855804"
         x="13.658703"
         y="17.438938" />
    </clipPath>
  </defs>
  <sodipodi:namedview
     inkscape:window-maximized="0"
     inkscape:window-y="25"
     inkscape:window-x="0"
     inkscape:window-height="1027"
     inkscape:window-width="1792"
     units="px"
     showgrid="false"
     inkscape:document-rotation="0"
     inkscape:current-layer="layer1"
     inkscape:document-units="mm"
     inkscape:cy="455.35554"
     inkscape:cx="332.55084"
     inkscape:zoom="0.54903962"
     inkscape:pageshadow="2"
     inkscape:pageopacity="1"
     borderopacity="1.0"
     bordercolor="#666666"
     pagecolor="#ffffff"
     id="base" />
  <metadata
     id="metadata5">
    <rdf:RDF>
      <cc:Work
         rdf:about="">
        <dc:format>image/svg+xml</dc:format>
        <dc:type
           rdf:resource="http://purl.org/dc/dcmitype/StillImage" />
        <dc:title></dc:title>
      </cc:Work>
    </rdf:RDF>
  </metadata>
  <g
     id="layer1"
     inkscape:groupmode="layer"
     inkscape:label="Layer 1"
     transform="translate(-26.780987,-7.8210177)">
    <path
       d=""
       id="path916-4"
       style="fill:#000000;stroke-width:0.177622" />
    <path
       d=""
       id="path914-1"
       style="fill:#000000;stroke-width:0.177622" />
    <path
       d=""
       id="path916"
       style="fill:#000000;stroke-width:0.177622" />
    <path
       d=""
       id="path914"
       style="fill:#000000;stroke-width:0.177622" />
    <path
       d=""
       id="path916-6"
       style="fill:#000000;stroke-width:0.177622" />
    <path
       d=""
       id="path914-12"
       style="fill:#000000;stroke-width:0.177622" />
    <rect
       style="opacity:1;fill:none;fill-rule:evenodd;stroke:#000000;stroke-width:4.50001;stroke-opacity:0;paint-order:markers stroke fill"
       id="rect3526"
       width="96.380409"
       height="61.683464"
       x="312.06702"
       y="167.33061" />
    <rect
       style="opacity:1;fill:none;fill-rule:evenodd;stroke:#000000;stroke-width:4.50001;stroke-opacity:0;paint-order:markers stroke fill"
       id="rect3528"
       width="109.39181"
       height="106.01842"
       x="321.70505"
       y="170.22203" />
    <rect
       style="opacity:1;fill:none;fill-opacity:1;fill-rule:evenodd;stroke:url(#linearGradient3549);stroke-width:4.50001;stroke-opacity:0;paint-order:markers stroke fill"
       id="rect3543"
       width="84.814766"
       height="70.8396"
       x="331.34311"
       y="75.769211" />
  </g>
  <style
     id="style1745"
     type="text/css">
  .bg0{fill:#FF8C00}
        .st0{fill:#FFFFFF;}
</style>
  <style
     type="text/css"
     id="style901">
	.st0{fill:#E2761B;stroke:#E2761B;stroke-linecap:round;stroke-linejoin:round;}
	.st1{fill:#E4761B;stroke:#E4761B;stroke-linecap:round;stroke-linejoin:round;}
	.st2{fill:#D7C1B3;stroke:#D7C1B3;stroke-linecap:round;stroke-linejoin:round;}
	.st3{fill:#233447;stroke:#233447;stroke-linecap:round;stroke-linejoin:round;}
	.st4{fill:#CD6116;stroke:#CD6116;stroke-linecap:round;stroke-linejoin:round;}
	.st5{fill:#E4751F;stroke:#E4751F;stroke-linecap:round;stroke-linejoin:round;}
	.st6{fill:#F6851B;stroke:#F6851B;stroke-linecap:round;stroke-linejoin:round;}
	.st7{fill:#C0AD9E;stroke:#C0AD9E;stroke-linecap:round;stroke-linejoin:round;}
	.st8{fill:#161616;stroke:#161616;stroke-linecap:round;stroke-linejoin:round;}
	.st9{fill:#763D16;stroke:#763D16;stroke-linecap:round;stroke-linejoin:round;}
</style>
  <style
     id="style1745-5"
     type="text/css">
  .bg0{fill:#FF8C00}
        .st0{fill:#FFFFFF;}
</style>
  <style
     type="text/css"
     id="style901-0">
	.st0{fill:#E2761B;stroke:#E2761B;stroke-linecap:round;stroke-linejoin:round;}
	.st1{fill:#E4761B;stroke:#E4761B;stroke-linecap:round;stroke-linejoin:round;}
	.st2{fill:#D7C1B3;stroke:#D7C1B3;stroke-linecap:round;stroke-linejoin:round;}
	.st3{fill:#233447;stroke:#233447;stroke-linecap:round;stroke-linejoin:round;}
	.st4{fill:#CD6116;stroke:#CD6116;stroke-linecap:round;stroke-linejoin:round;}
	.st5{fill:#E4751F;stroke:#E4751F;stroke-linecap:round;stroke-linejoin:round;}
	.st6{fill:#F6851B;stroke:#F6851B;stroke-linecap:round;stroke-linejoin:round;}
	.st7{fill:#C0AD9E;stroke:#C0AD9E;stroke-linecap:round;stroke-linejoin:round;}
	.st8{fill:#161616;stroke:#161616;stroke-linecap:round;stroke-linejoin:round;}
	.st9{fill:#763D16;stroke:#763D16;stroke-linecap:round;stroke-linejoin:round;}
</style>
  <style
     id="style1745-8"
     type="text/css">
  .bg0{fill:#FF8C00}
        .st0{fill:#FFFFFF;}
</style>
  <style
     type="text/css"
     id="style901-1">
	.st0{fill:#E2761B;stroke:#E2761B;stroke-linecap:round;stroke-linejoin:round;}
	.st1{fill:#E4761B;stroke:#E4761B;stroke-linecap:round;stroke-linejoin:round;}
	.st2{fill:#D7C1B3;stroke:#D7C1B3;stroke-linecap:round;stroke-linejoin:round;}
	.st3{fill:#233447;stroke:#233447;stroke-linecap:round;stroke-linejoin:round;}
	.st4{fill:#CD6116;stroke:#CD6116;stroke-linecap:round;stroke-linejoin:round;}
	.st5{fill:#E4751F;stroke:#E4751F;stroke-linecap:round;stroke-linejoin:round;}
	.st6{fill:#F6851B;stroke:#F6851B;stroke-linecap:round;stroke-linejoin:round;}
	.st7{fill:#C0AD9E;stroke:#C0AD9E;stroke-linecap:round;stroke-linejoin:round;}
	.st8{fill:#161616;stroke:#161616;stroke-linecap:round;stroke-linejoin:round;}
	.st9{fill:#763D16;stroke:#763D16;stroke-linecap:round;stroke-linejoin:round;}
</style>
  <style
     id="style1745-5-0"
     type="text/css">
  .bg0{fill:#FF8C00}
        .st0{fill:#FFFFFF;}
</style>
  <style
     type="text/css"
     id="style901-0-8">
	.st0{fill:#E2761B;stroke:#E2761B;stroke-linecap:round;stroke-linejoin:round;}
	.st1{fill:#E4761B;stroke:#E4761B;stroke-linecap:round;stroke-linejoin:round;}
	.st2{fill:#D7C1B3;stroke:#D7C1B3;stroke-linecap:round;stroke-linejoin:round;}
	.st3{fill:#233447;stroke:#233447;stroke-linecap:round;stroke-linejoin:round;}
	.st4{fill:#CD6116;stroke:#CD6116;stroke-linecap:round;stroke-linejoin:round;}
	.st5{fill:#E4751F;stroke:#E4751F;stroke-linecap:round;stroke-linejoin:round;}
	.st6{fill:#F6851B;stroke:#F6851B;stroke-linecap:round;stroke-linejoin:round;}
	.st7{fill:#C0AD9E;stroke:#C0AD9E;stroke-linecap:round;stroke-linejoin:round;}
	.st8{fill:#161616;stroke:#161616;stroke-linecap:round;stroke-linejoin:round;}
	.st9{fill:#763D16;stroke:#763D16;stroke-linecap:round;stroke-linejoin:round;}
</style>
  <style
     id="style1745-1"
     type="text/css">
  .bg0{fill:#FF8C00}
        .st0{fill:#FFFFFF;}
</style>
  <style
     type="text/css"
     id="style901-9">
	.st0{fill:#E2761B;stroke:#E2761B;stroke-linecap:round;stroke-linejoin:round;}
	.st1{fill:#E4761B;stroke:#E4761B;stroke-linecap:round;stroke-linejoin:round;}
	.st2{fill:#D7C1B3;stroke:#D7C1B3;stroke-linecap:round;stroke-linejoin:round;}
	.st3{fill:#233447;stroke:#233447;stroke-linecap:round;stroke-linejoin:round;}
	.st4{fill:#CD6116;stroke:#CD6116;stroke-linecap:round;stroke-linejoin:round;}
	.st5{fill:#E4751F;stroke:#E4751F;stroke-linecap:round;stroke-linejoin:round;}
	.st6{fill:#F6851B;stroke:#F6851B;stroke-linecap:round;stroke-linejoin:round;}
	.st7{fill:#C0AD9E;stroke:#C0AD9E;stroke-linecap:round;stroke-linejoin:round;}
	.st8{fill:#161616;stroke:#161616;stroke-linecap:round;stroke-linejoin:round;}
	.st9{fill:#763D16;stroke:#763D16;stroke-linecap:round;stroke-linejoin:round;}
</style>
  <style
     id="style1745-5-9"
     type="text/css">
  .bg0{fill:#FF8C00}
        .st0{fill:#FFFFFF;}
</style>
  <style
     type="text/css"
     id="style901-0-1">
	.st0{fill:#E2761B;stroke:#E2761B;stroke-linecap:round;stroke-linejoin:round;}
	.st1{fill:#E4761B;stroke:#E4761B;stroke-linecap:round;stroke-linejoin:round;}
	.st2{fill:#D7C1B3;stroke:#D7C1B3;stroke-linecap:round;stroke-linejoin:round;}
	.st3{fill:#233447;stroke:#233447;stroke-linecap:round;stroke-linejoin:round;}
	.st4{fill:#CD6116;stroke:#CD6116;stroke-linecap:round;stroke-linejoin:round;}
	.st5{fill:#E4751F;stroke:#E4751F;stroke-linecap:round;stroke-linejoin:round;}
	.st6{fill:#F6851B;stroke:#F6851B;stroke-linecap:round;stroke-linejoin:round;}
	.st7{fill:#C0AD9E;stroke:#C0AD9E;stroke-linecap:round;stroke-linejoin:round;}
	.st8{fill:#161616;stroke:#161616;stroke-linecap:round;stroke-linejoin:round;}
	.st9{fill:#763D16;stroke:#763D16;stroke-linecap:round;stroke-linejoin:round;}
</style>
  <style
     id="style1745-7"
     type="text/css">
  .bg0{fill:#FF8C00}
        .st0{fill:#FFFFFF;}
</style>
  <style
     type="text/css"
     id="style901-4">
	.st0{fill:#E2761B;stroke:#E2761B;stroke-linecap:round;stroke-linejoin:round;}
	.st1{fill:#E4761B;stroke:#E4761B;stroke-linecap:round;stroke-linejoin:round;}
	.st2{fill:#D7C1B3;stroke:#D7C1B3;stroke-linecap:round;stroke-linejoin:round;}
	.st3{fill:#233447;stroke:#233447;stroke-linecap:round;stroke-linejoin:round;}
	.st4{fill:#CD6116;stroke:#CD6116;stroke-linecap:round;stroke-linejoin:round;}
	.st5{fill:#E4751F;stroke:#E4751F;stroke-linecap:round;stroke-linejoin:round;}
	.st6{fill:#F6851B;stroke:#F6851B;stroke-linecap:round;stroke-linejoin:round;}
	.st7{fill:#C0AD9E;stroke:#C0AD9E;stroke-linecap:round;stroke-linejoin:round;}
	.st8{fill:#161616;stroke:#161616;stroke-linecap:round;stroke-linejoin:round;}
	.st9{fill:#763D16;stroke:#763D16;stroke-linecap:round;stroke-linejoin:round;}
</style>
</svg>
