<svg width="223" height="223" viewBox="0 0 223 223" fill="none" xmlns="http://www.w3.org/2000/svg">
<rect width="223" height="223" fill="#18181C"/>
<path fill-rule="evenodd" clip-rule="evenodd" d="M106.63 153.537L92.9535 161.134C88.848 163.415 84.3302 162.49 81.0809 159.591C77.8143 156.676 76.3282 152.197 78.0652 147.839C79.2205 144.94 80.3273 142.068 81.3883 139.212L106.63 153.537ZM111.101 151.052L82.9057 135.051C90.7379 113.162 95.9327 91.9528 99.7403 66.7976C100.477 61.9338 104.295 58.9103 108.48 58.1951C109.658 58.074 110.874 58.1439 112.084 58.3996C116.394 59.3109 119.959 62.4544 120.673 67.0832C124.403 91.2605 129.892 112.545 138.489 135.838L111.101 151.052ZM111.08 156.062L95.0968 164.942C83.0525 171.633 68.9336 158.881 73.9692 146.247C75.2064 143.142 76.3873 140.069 77.5152 137.014L70.3861 132.968C63.6258 129.132 61.351 120.642 65.3103 114.026L97.2307 60.6814C99.7114 56.5358 103.652 54.3637 107.801 53.8802C113.441 52.9083 119.564 54.9335 122.92 60.6613L155.116 115.616C159.014 122.27 156.664 130.739 149.871 134.513L143.922 137.818C144.981 140.61 146.085 143.435 147.236 146.302C152.3 158.902 138.17 171.436 126.205 164.646L111.08 156.062ZM140.04 139.974C141.035 142.586 142.069 145.227 143.144 147.902C146.736 156.84 136.559 165.5 128.383 160.859L115.552 153.578L140.04 139.974ZM142.377 133.678L147.727 130.705C152.37 128.126 153.968 122.365 151.305 117.819L126.544 75.5557C130.121 95.5467 135.109 113.878 142.377 133.678ZM79.0242 132.848C85.7236 113.991 90.4486 95.606 94.0268 74.6116L69.1026 116.264C66.3968 120.786 67.9449 126.561 72.5636 129.182L79.0242 132.848Z" fill="#F1F2F6"/>
</svg>
