<svg width="223" height="223" viewBox="0 0 223 223" fill="none" xmlns="http://www.w3.org/2000/svg">
<circle cx="111.5" cy="111.5" r="111.5" fill="#18181C"/>
<path fill-rule="evenodd" clip-rule="evenodd" d="M106.63 153.537L92.9535 161.134C88.848 163.415 84.3302 162.49 81.0809 159.591C77.8143 156.677 76.3282 152.198 78.0652 147.839C79.2205 144.941 80.3273 142.068 81.3883 139.212L106.63 153.537ZM111.101 151.053L82.9057 135.051C90.7379 113.162 95.9327 91.953 99.7403 66.7978C100.477 61.9341 104.295 58.9106 108.48 58.1953C109.658 58.0742 110.874 58.1442 112.084 58.3999C116.394 59.3111 119.959 62.4547 120.673 67.0835C124.403 91.2607 129.892 112.545 138.489 135.838L111.101 151.053ZM111.08 156.063L95.0968 164.942C83.0525 171.633 68.9336 158.882 73.9692 146.247C75.2064 143.143 76.3873 140.069 77.5152 137.014L70.3861 132.969C63.6258 129.132 61.351 120.643 65.3103 114.026L97.2307 60.6816C99.7114 56.536 103.652 54.3639 107.801 53.8804C113.441 52.9085 119.564 54.9338 122.92 60.6615L155.116 115.616C159.014 122.271 156.664 130.74 149.871 134.513L143.922 137.818C144.981 140.61 146.085 143.435 147.236 146.302C152.3 158.902 138.17 171.436 126.205 164.646L111.08 156.063ZM140.04 139.975C141.035 142.587 142.069 145.227 143.144 147.902C146.736 156.84 136.559 165.5 128.383 160.86L115.552 153.578L140.04 139.975ZM142.377 133.678L147.727 130.706C152.37 128.127 153.968 122.365 151.305 117.819L126.544 75.5559C130.121 95.5469 135.109 113.878 142.377 133.678ZM79.0242 132.849C85.7236 113.991 90.4486 95.6063 94.0268 74.6119L69.1026 116.264C66.3968 120.786 67.9449 126.561 72.5636 129.182L79.0242 132.849Z" fill="#F1F2F6"/>
</svg>
